<svg version="1.1" xmlns="http://www.w3.org/2000/svg" viewBox="0 0 628.9606638636078 578.4185842870429" width="1886.8819915908234" height="1735.2557528611287">
  <!-- svg-source:excalidraw -->
  
  <defs>
    <style>
      @font-face {
        font-family: "Virgil";
        src: url("https://excalidraw.com/Virgil.woff2");
      }
      @font-face {
        font-family: "Cascadia";
        src: url("https://excalidraw.com/Cascadia.woff2");
      }
    </style>
  </defs>
  <g stroke-linecap="round"><g transform="translate(297.30635012599123 36.98177569557993) rotate(0 -9.86653351853397 137.7423803210056)" fill-rule="evenodd"><path d="M0.1 -0.81 L-23.51 -3.67 L-33.99 9.89 L-61.04 13.15 L-77.06 23.76 L-106.75 16.06 L-119.23 35.49 L-144.73 46.89 L-162.2 71.36 L-182.1 73.79 L-185.16 91.07 L-193.78 107.75 L-191.19 139.48 L-199.43 162.04 L-187.51 186.93 L-185.09 226.16 L-162.1 243.08 L-150.76 265.01 L-144.66 268.67 L-132.99 253.17 L-93.45 256.78 L-87.05 262.28 L-85.05 285.14 L-83.73 286.28 L-53.78 275.73 L-31.49 281.72 L-1.4 265.69 L24.15 273.17 L52.23 265.36 L79.05 271.76 L82.19 274.18 L91.17 266.05 L108.33 244.75 L134.06 241.5 L142.22 232.96 L152.17 195.72 L175.67 176.72 L182.52 171.11 L180.39 160.26 L169.45 140.46 L174.99 107.52 L152.81 89.19 L152.8 66.81 L146.69 57.78 L114.9 49.46 L104.57 20.02 L69.09 21.94 L51.15 -5.13 L35.54 1.4 L14.12 -13.14 L12.39 -10.94 L-3.63 -0.69" stroke="none" stroke-width="0" fill="#fff" fill-rule="evenodd"></path><path d="M0.13 -1.76 C-3.77 -3.26, -15.7 -9.28, -22.04 -7.73 C-28.37 -6.17, -31.71 4.37, -37.89 7.57 C-44.06 10.77, -51.69 9.58, -59.09 11.48 C-66.49 13.38, -74.84 17.55, -82.28 18.98 C-89.73 20.41, -98.01 17.22, -103.74 20.09 C-109.47 22.95, -110.07 31.49, -116.66 36.19 C-123.25 40.89, -135.7 42.64, -143.27 48.3 C-150.85 53.95, -156.43 66.1, -162.1 70.13 C-167.78 74.17, -173.21 68.37, -177.33 72.48 C-181.44 76.6, -183.81 89.01, -186.77 94.82 C-189.74 100.63, -194.52 100.16, -195.1 107.33 C-195.68 114.5, -189.71 128.53, -190.24 137.84 C-190.77 147.16, -198.5 154.91, -198.29 163.19 C-198.07 171.48, -190.97 177.84, -188.97 187.53 C-186.97 197.23, -190.61 212.76, -186.27 221.36 C-181.93 229.97, -169.53 231.55, -162.92 239.17 C-156.3 246.8, -152.39 264.61, -146.55 267.13 C-140.72 269.65, -133.89 255.48, -127.91 254.28 C-121.94 253.08, -116.75 259.02, -110.71 259.93 C-104.68 260.84, -96.66 255.07, -91.7 259.73 C-86.74 264.4, -87 285.51, -80.96 287.93 C-74.93 290.34, -64.37 275.62, -55.48 274.22 C-46.6 272.81, -36.86 280.49, -27.63 279.52 C-18.39 278.54, -9.76 269.02, -0.08 268.35 C9.6 267.67, 21.8 275.76, 30.45 275.46 C39.1 275.17, 42.98 266.59, 51.85 266.6 C60.72 266.61, 74.91 278.89, 83.67 275.53 C92.42 272.17, 95.04 253.69, 104.39 246.45 C113.75 239.2, 131.71 240.44, 139.79 232.07 C147.87 223.71, 146.1 206.73, 152.87 196.25 C159.63 185.76, 177.69 179.05, 180.38 169.17 C183.06 159.3, 170.42 146.43, 169 136.99 C167.59 127.56, 174.31 120.69, 171.87 112.56 C169.44 104.43, 158.52 96.92, 154.37 88.23 C150.22 79.54, 153.72 66.84, 146.99 60.43 C140.26 54.01, 121.39 55.8, 114.01 49.72 C106.64 43.64, 109.24 29.04, 102.72 23.94 C96.2 18.84, 82.83 23.57, 74.9 19.12 C66.97 14.67, 62.04 -0.1, 55.16 -2.77 C48.27 -5.43, 40.07 4.77, 33.6 3.13 C27.12 1.49, 22.16 -12.29, 16.3 -12.6 C10.45 -12.91, 1.37 -0.54, -1.54 1.26 M-3.25 3.46 C-7.68 2.16, -18.3 -6.14, -24.47 -5.08 C-30.65 -4.01, -34.81 6.67, -40.32 9.88 C-45.84 13.09, -51.25 12.73, -57.58 14.21 C-63.9 15.68, -69.89 18.13, -78.29 18.73 C-86.69 19.32, -101.93 14.11, -108 17.76 C-114.07 21.42, -109.73 35.55, -114.69 40.66 C-119.65 45.77, -130.42 43.85, -137.78 48.43 C-145.13 53.01, -151.34 64.39, -158.82 68.15 C-166.29 71.91, -178.05 66.13, -182.63 70.97 C-187.22 75.81, -183.82 90.07, -186.34 97.2 C-188.86 104.33, -197.1 107.42, -197.76 113.75 C-198.42 120.08, -189.83 127.09, -190.28 135.18 C-190.74 143.28, -200.76 152.56, -200.48 162.31 C-200.21 172.06, -191.38 183.43, -188.64 193.68 C-185.9 203.94, -187.89 216.15, -184.06 223.86 C-180.23 231.57, -171.59 232.49, -165.66 239.94 C-159.73 247.39, -154.45 266.22, -148.46 268.55 C-142.47 270.87, -136.06 255.86, -129.71 253.91 C-123.36 251.96, -117.53 255.13, -110.38 256.84 C-103.24 258.56, -91.77 259.37, -86.85 264.18 C-81.93 268.99, -86.02 284.46, -80.87 285.69 C-75.71 286.92, -64.05 273.03, -55.91 271.57 C-47.77 270.11, -40.67 277.27, -32.02 276.92 C-23.36 276.58, -13.63 269.74, -3.98 269.51 C5.67 269.28, 16.14 276.2, 25.88 275.52 C35.62 274.83, 45.6 265.88, 54.46 265.41 C63.31 264.93, 70.85 275.38, 79.02 272.67 C87.2 269.96, 94.06 256.5, 103.5 249.15 C112.95 241.8, 127.42 237.86, 135.69 228.55 C143.95 219.24, 145.81 203.76, 153.1 193.3 C160.38 182.84, 176.24 174.11, 179.42 165.78 C182.59 157.44, 172.91 153.02, 172.13 143.27 C171.36 133.52, 177.23 116.68, 174.76 107.27 C172.29 97.86, 161.74 95.28, 157.34 86.8 C152.94 78.32, 155.03 63.14, 148.36 56.39 C141.7 49.64, 124.74 51.97, 117.36 46.32 C109.98 40.68, 111.2 26.92, 104.08 22.53 C96.97 18.14, 83.26 24.18, 74.67 19.99 C66.08 15.8, 59.09 0.07, 52.55 -2.61 C46.01 -5.3, 41.05 5.57, 35.43 3.89 C29.8 2.22, 24.09 -12.35, 18.83 -12.68 C13.56 -13.02, 7.14 -0.26, 3.84 1.9" stroke="#000" stroke-width="1" fill="none"></path></g></g><g stroke-linecap="round" transform="translate(190.09086515875606 325.25203292833794) rotate(0 5.4157500635874385 4.814000056522218)"><path d="M10.83 4.81 C10.83 5.09, 10.8 5.38, 10.75 5.65 C10.69 5.92, 10.61 6.2, 10.5 6.46 C10.4 6.72, 10.26 6.98, 10.11 7.22 C9.95 7.46, 9.77 7.69, 9.56 7.91 C9.36 8.12, 9.14 8.32, 8.9 8.5 C8.66 8.68, 8.4 8.84, 8.12 8.98 C7.85 9.12, 7.56 9.24, 7.27 9.34 C6.97 9.43, 6.66 9.51, 6.36 9.55 C6.05 9.6, 5.73 9.63, 5.42 9.63 C5.1 9.63, 4.78 9.6, 4.48 9.55 C4.17 9.51, 3.86 9.43, 3.56 9.34 C3.27 9.24, 2.98 9.12, 2.71 8.98 C2.44 8.84, 2.17 8.68, 1.93 8.5 C1.69 8.32, 1.47 8.12, 1.27 7.91 C1.07 7.69, 0.88 7.46, 0.73 7.22 C0.57 6.98, 0.43 6.72, 0.33 6.46 C0.22 6.2, 0.14 5.92, 0.08 5.65 C0.03 5.38, 0 5.09, 0 4.81 C0 4.54, 0.03 4.25, 0.08 3.98 C0.14 3.7, 0.22 3.43, 0.33 3.17 C0.43 2.91, 0.57 2.65, 0.73 2.41 C0.88 2.17, 1.07 1.93, 1.27 1.72 C1.47 1.51, 1.69 1.31, 1.93 1.13 C2.17 0.95, 2.44 0.78, 2.71 0.64 C2.98 0.51, 3.27 0.39, 3.56 0.29 C3.86 0.2, 4.17 0.12, 4.48 0.07 C4.78 0.02, 5.1 0, 5.42 0 C5.73 0, 6.05 0.02, 6.36 0.07 C6.66 0.12, 6.97 0.2, 7.27 0.29 C7.56 0.39, 7.85 0.51, 8.12 0.64 C8.4 0.78, 8.66 0.95, 8.9 1.13 C9.14 1.31, 9.36 1.51, 9.56 1.72 C9.77 1.93, 9.95 2.17, 10.11 2.41 C10.26 2.65, 10.4 2.91, 10.5 3.17 C10.61 3.43, 10.69 3.7, 10.75 3.98 C10.8 4.25, 10.82 4.67, 10.83 4.81 C10.85 4.95, 10.85 4.67, 10.83 4.81" stroke="#000" stroke-width="1" fill="none"></path></g><g stroke-linecap="round" transform="translate(161.80861482675027 327.05728294953224) rotate(0 5.4157500635874385 4.814000056522218)"><path d="M10.83 4.81 C10.83 5.09, 10.8 5.38, 10.75 5.65 C10.69 5.92, 10.61 6.2, 10.5 6.46 C10.4 6.72, 10.26 6.98, 10.11 7.22 C9.95 7.46, 9.77 7.69, 9.56 7.91 C9.36 8.12, 9.14 8.32, 8.9 8.5 C8.66 8.68, 8.4 8.84, 8.12 8.98 C7.85 9.12, 7.56 9.24, 7.27 9.34 C6.97 9.43, 6.66 9.51, 6.36 9.55 C6.05 9.6, 5.73 9.63, 5.42 9.63 C5.1 9.63, 4.78 9.6, 4.48 9.55 C4.17 9.51, 3.86 9.43, 3.56 9.34 C3.27 9.24, 2.98 9.12, 2.71 8.98 C2.44 8.84, 2.17 8.68, 1.93 8.5 C1.69 8.32, 1.47 8.12, 1.27 7.91 C1.07 7.69, 0.88 7.46, 0.73 7.22 C0.57 6.98, 0.43 6.72, 0.33 6.46 C0.22 6.2, 0.14 5.92, 0.08 5.65 C0.03 5.38, 0 5.09, 0 4.81 C0 4.54, 0.03 4.25, 0.08 3.98 C0.14 3.7, 0.22 3.43, 0.33 3.17 C0.43 2.91, 0.57 2.65, 0.73 2.41 C0.88 2.17, 1.07 1.93, 1.27 1.72 C1.47 1.51, 1.69 1.31, 1.93 1.13 C2.17 0.95, 2.44 0.78, 2.71 0.64 C2.98 0.51, 3.27 0.39, 3.56 0.29 C3.86 0.2, 4.17 0.12, 4.48 0.07 C4.78 0.02, 5.1 0, 5.42 0 C5.73 0, 6.05 0.02, 6.36 0.07 C6.66 0.12, 6.97 0.2, 7.27 0.29 C7.56 0.39, 7.85 0.51, 8.12 0.64 C8.4 0.78, 8.66 0.95, 8.9 1.13 C9.14 1.31, 9.36 1.51, 9.56 1.72 C9.77 1.93, 9.95 2.17, 10.11 2.41 C10.26 2.65, 10.4 2.91, 10.5 3.17 C10.61 3.43, 10.69 3.7, 10.75 3.98 C10.8 4.25, 10.82 4.67, 10.83 4.81 C10.85 4.95, 10.85 4.67, 10.83 4.81" stroke="#000" stroke-width="1" fill="none"></path></g><g stroke-linecap="round"><g transform="translate(190.81832533396846 401.17920083775016) rotate(344.99999999999994 -0.8756057716018404 7.503681242438688)"><path d="M0 0 C-0.6 0.38, -2.94 0.15, -3.6 2.25 C-4.26 4.35, -4.56 10.48, -3.94 12.6 C-3.32 14.72, -0.92 15.17, 0.11 14.97 C1.14 14.76, 1.89 13.62, 2.25 11.37 C2.61 9.11, 2.63 3.36, 2.25 1.46 C1.88 -0.43, 0.38 0.24, 0 0 M0 0 C-0.6 0.38, -2.94 0.15, -3.6 2.25 C-4.26 4.35, -4.56 10.48, -3.94 12.6 C-3.32 14.72, -0.92 15.17, 0.11 14.97 C1.14 14.76, 1.89 13.62, 2.25 11.37 C2.61 9.11, 2.63 3.36, 2.25 1.46 C1.88 -0.43, 0.38 0.24, 0 0" stroke="#000" stroke-width="1" fill="none"></path></g></g><g stroke-linecap="round"><g transform="translate(201.42296707201058 351.42604631286804) rotate(315 -0.8756057716018404 7.503681242438688)"><path d="M0 0 C-0.6 0.38, -2.94 0.15, -3.6 2.25 C-4.26 4.35, -4.56 10.48, -3.94 12.6 C-3.32 14.72, -0.92 15.17, 0.11 14.97 C1.14 14.76, 1.89 13.62, 2.25 11.37 C2.61 9.11, 2.63 3.36, 2.25 1.46 C1.88 -0.43, 0.38 0.24, 0 0 M0 0 C-0.6 0.38, -2.94 0.15, -3.6 2.25 C-4.26 4.35, -4.56 10.48, -3.94 12.6 C-3.32 14.72, -0.92 15.17, 0.11 14.97 C1.14 14.76, 1.89 13.62, 2.25 11.37 C2.61 9.11, 2.63 3.36, 2.25 1.46 C1.88 -0.43, 0.38 0.24, 0 0" stroke="#000" stroke-width="1" fill="none"></path></g></g><g stroke-linecap="round"><g transform="translate(165.91971665517667 399.5660468780952) rotate(14.999999999999982 -0.8756057716018404 7.503681242438688)"><path d="M0 0 C-0.6 0.38, -2.94 0.15, -3.6 2.25 C-4.26 4.35, -4.56 10.48, -3.94 12.6 C-3.32 14.72, -0.92 15.17, 0.11 14.97 C1.14 14.76, 1.89 13.62, 2.25 11.37 C2.61 9.11, 2.63 3.36, 2.25 1.46 C1.88 -0.43, 0.38 0.24, 0 0 M0 0 C-0.6 0.38, -2.94 0.15, -3.6 2.25 C-4.26 4.35, -4.56 10.48, -3.94 12.6 C-3.32 14.72, -0.92 15.17, 0.11 14.97 C1.14 14.76, 1.89 13.62, 2.25 11.37 C2.61 9.11, 2.63 3.36, 2.25 1.46 C1.88 -0.43, 0.38 0.24, 0 0" stroke="#000" stroke-width="1" fill="none"></path></g></g><g stroke-linecap="round"><g transform="translate(159.361274830846 351.74518394576944) rotate(49.71387422945032 -0.8756057716018404 7.503681242438688)"><path d="M0 0 C-0.6 0.38, -2.94 0.15, -3.6 2.25 C-4.26 4.35, -4.56 10.48, -3.94 12.6 C-3.32 14.72, -0.92 15.17, 0.11 14.97 C1.14 14.76, 1.89 13.62, 2.25 11.37 C2.61 9.11, 2.63 3.36, 2.25 1.46 C1.88 -0.43, 0.38 0.24, 0 0 M0 0 C-0.6 0.38, -2.94 0.15, -3.6 2.25 C-4.26 4.35, -4.56 10.48, -3.94 12.6 C-3.32 14.72, -0.92 15.17, 0.11 14.97 C1.14 14.76, 1.89 13.62, 2.25 11.37 C2.61 9.11, 2.63 3.36, 2.25 1.46 C1.88 -0.43, 0.38 0.24, 0 0" stroke="#000" stroke-width="1" fill="none"></path></g></g><g stroke-linecap="round"><g transform="translate(233.38220905610615 240.4345342805741) rotate(0 57.5 -0.19230769230784972)"><path d="M0 0 C28.47 -0.1, 56.94 -0.19, 115 -0.38 M0 0 C23.85 -0.08, 47.7 -0.16, 115 -0.38" stroke="#000" stroke-width="1" fill="none"></path></g></g><g stroke-linecap="round"><g transform="translate(232.6129782868793 249.66530351134315) rotate(0 57.5 -0.19230769230762235)"><path d="M0 0 C41.53 -0.14, 83.07 -0.28, 115 -0.38 M0 0 C44.2 -0.15, 88.39 -0.3, 115 -0.38" stroke="#000" stroke-width="1" fill="none"></path></g></g><g stroke-linecap="round"><g transform="translate(233.57451674841468 231.01145735749697) rotate(0 57.5 -0.19230769230784972)"><path d="M0 0 C35.42 -0.12, 70.84 -0.24, 115 -0.38 M0 0 C45.99 -0.15, 91.97 -0.31, 115 -0.38" stroke="#000" stroke-width="1" fill="none"></path></g></g><g stroke-linecap="round"><g transform="translate(236.2668244407232 222.16530351134315) rotate(0 55.19230769230762 0.19230769230762235)"><path d="M0 0 C24.61 0.09, 49.21 0.17, 110.38 0.38 M0 0 C29.89 0.1, 59.79 0.21, 110.38 0.38" stroke="#000" stroke-width="1" fill="none"></path></g></g><g stroke-linecap="round"><g transform="translate(264.65143982533664 275.0883804344194) rotate(0 -33.14417906210383 122.06193513827384)"><path d="M0.1 0.36 C-0.04 30.63, 10.11 141.84, -1.79 182.43 C-13.68 223.02, -59.73 233.26, -71.26 243.89 M-1.3 -0.5 C-0.98 29.85, 12.24 142.81, 0.51 183.67 C-11.21 224.52, -59.85 234.52, -71.64 244.62" stroke="#000000" stroke-width="1" fill="none"></path></g></g><g stroke-linecap="round"><g transform="translate(327.65143982533664 271.0883804344194) rotate(0 39.7859201743081 123.11254611946651)"><path d="M0.36 -0.79 C1.63 31.15, -4.66 150.44, 8.43 191.74 C21.52 233.04, 66.76 238.03, 78.89 247.01 M-0.91 1.41 C0.07 33, -6.5 149.37, 7.18 190 C20.87 230.64, 69.33 235.77, 81.2 245.2" stroke="#000000" stroke-width="1" fill="none"></path></g></g><g stroke-linecap="round"><g transform="translate(270.65143982533664 348.0883804344194) rotate(0 -56.78164582385671 -23.918250647624973)"><path d="M-0.79 -0.57 C-19.8 -8.89, -95.18 -41.8, -114 -49.58 M1 1.74 C-18.12 -6.5, -95.4 -40.17, -114.56 -48.63" stroke="#000000" stroke-width="1" fill="none"></path></g></g><g stroke-linecap="round"><g transform="translate(270.15143982533664 324.5883804344194) rotate(0 -52.187059686398015 -21.45531415501614)"><path d="M-0.57 0.74 C-18.25 -6.14, -88.57 -34.7, -105.7 -42.06 M1.33 0.08 C-16.02 -7.05, -86.1 -36.59, -103.58 -43.65" stroke="#000000" stroke-width="1" fill="none"></path></g></g><g stroke-linecap="round"><g transform="translate(376.8251124185317 360.0089217257805) rotate(127.98420023406196 -23.83313776646719 -10.187696804534653)"><path d="M0.74 -1.11 C-7.13 -4.32, -39.64 -16.44, -47.99 -19.8 M-0.33 0.92 C-8.2 -2.54, -40.08 -17.8, -48.41 -21.29" stroke="#000000" stroke-width="1" fill="none"></path></g></g><g stroke-linecap="round"><g transform="translate(376.4283111777131 381.83704916440365) rotate(127.98420023406196 -23.80719955395898 -10.16923266313961)"><path d="M-1.11 1.01 C-8.98 -2.67, -39.78 -17.69, -47.8 -21.35 M0.51 0.5 C-7.37 -3.08, -39.68 -16.64, -48.12 -20" stroke="#000000" stroke-width="1" fill="none"></path></g></g><g stroke-linecap="round"><g transform="translate(154.65143982533664 299.0883804344194) rotate(0 -0.23520331014879048 52.96283996777606)"><path d="M1.01 1.2 C0.83 18.67, -0.19 86.52, -0.35 103.74 M0.08 0.78 C-0.35 18.54, -1.35 88.2, -1.48 105.14" stroke="#000000" stroke-width="1" fill="none"></path></g></g><g stroke-linecap="round"><g transform="translate(203.44161952356262 323.0725934587408) rotate(0 0.0382792750497174 40.01876054092327)"><path d="M1.2 -0.35 C1.38 12.82, 0.03 66.82, -0.05 80.06 M0.37 -1.58 C0.46 12.32, -1.11 68.04, -1.13 81.62" stroke="#000000" stroke-width="1" fill="none"></path></g></g><g stroke-linecap="round"><g transform="translate(160.65143982533664 393.0883804344194) rotate(0 -4.608635696340343 8.047345135407568)"><path d="M-0.35 -0.26 C-2.18 2.46, -8.19 14.73, -9.96 17.53 M1.67 -1.44 C-0.4 1.43, -9.18 12.52, -10.88 15.69" stroke="#000000" stroke-width="1" fill="none"></path></g></g><g stroke-linecap="round"><g transform="translate(209.65143982533664 393.5883804344194) rotate(0 -4.1632007945700025 8.044445304386272)"><path d="M-0.26 0.04 C-2.04 2.77, -7.77 13.31, -9.47 16.04 M1.81 -0.98 C-0.19 1.9, -7.92 14, -10.13 17.07" stroke="#000000" stroke-width="1" fill="none"></path></g></g><g stroke-linecap="round"><g transform="translate(150.65143982533664 410.0883804344194) rotate(0 25.924942554961945 -0.46317382790152806)"><path d="M0.04 0.53 C8.61 0.33, 42.47 -1.13, 51.04 -1.46 M-1.4 -0.23 C7.57 -0.24, 44.62 -0.15, 53.24 -0.17" stroke="#000000" stroke-width="1" fill="none"></path></g></g><g stroke-linecap="round"><g transform="translate(161.65143982533664 392.5883804344194) rotate(0 23.882665065247238 0.2608983552270274)"><path d="M0.53 -0.96 C8.65 -0.93, 40.42 0, 48.41 0.24 M-0.64 1.15 C7.29 1.33, 39.2 1.41, 47.22 1.48" stroke="#000000" stroke-width="1" fill="none"></path></g></g><g stroke-linecap="round"><g transform="translate(221.65143982533664 245.5214897468686) rotate(0 33.09685320785002 -57.15746798530745)"><path d="M-0.96 -0.46 C10.22 -19.53, 55.76 -94.97, 67.16 -113.85 M0.73 -1.75 C11.71 -20.69, 54.96 -94.05, 65.91 -112.54" stroke="#000000" stroke-width="1" fill="none"></path></g></g><g stroke-linecap="round"><g transform="translate(290.2886381513581 132.24389147209558) rotate(0 34.689680331548516 56.09839938057053)"><path d="M-0.46 -0.57 C11.09 18.16, 58.11 92.84, 69.84 111.4 M1.5 1.75 C12.81 20.74, 57.43 94.45, 68.67 112.76" stroke="#000000" stroke-width="1" fill="none"></path></g></g><g stroke-linecap="round"><g transform="translate(233.67742573137548 228.58451394140639) rotate(0 -1.7371189739751571 22.407849544576493)"><path d="M-0.57 -0.42 C-1.02 7.18, -3.07 37.53, -3.69 45.15 M1.34 -1.69 C0.78 6.13, -4.28 38.46, -4.81 46.5" stroke="#000000" stroke-width="1" fill="none"></path></g></g><g stroke-linecap="round"><g transform="translate(347.0663197955819 224.3825881832936) rotate(0 -1.092756467221534 24.91379290658506)"><path d="M-0.42 -0.34 C-0.78 8.15, -2.27 41.8, -2.61 50.34 M1.56 -1.56 C1.05 7.1, -2.93 42.46, -3.74 51.39" stroke="#000000" stroke-width="1" fill="none"></path></g></g><g stroke-linecap="round"><g transform="translate(230.76650433015493 273.33503816174107) rotate(0 58.60551612401787 0.8060811017530796)"><path d="M-0.34 -0.35 C18.98 0.01, 95.95 1.34, 115.32 1.75 M1.69 -1.58 C21.42 -1, 98.68 2.35, 117.55 3.2" stroke="#000000" stroke-width="1" fill="none"></path></g></g><g stroke-linecap="round" transform="translate(264.49060066449783 209.6548140008531) rotate(0 26.61188811188731 26.611888111887083)"><path d="M0 0 L53.22 0 L53.22 53.22 L0 53.22" stroke="none" stroke-width="0" fill="#fff"></path><path d="M0 0 C14.1 0, 28.2 0, 53.22 0 M0 0 C12.56 0, 25.11 0, 53.22 0 M53.22 0 C53.22 18.9, 53.22 37.8, 53.22 53.22 M53.22 0 C53.22 14.76, 53.22 29.51, 53.22 53.22 M53.22 53.22 C36.01 53.22, 18.8 53.22, 0 53.22 M53.22 53.22 C39.81 53.22, 26.4 53.22, 0 53.22 M0 53.22 C0 33.61, 0 13.99, 0 0 M0 53.22 C0 36.83, 0 20.43, 0 0" stroke="#000000" stroke-width="1" fill="none"></path></g><g stroke-linecap="round"><g transform="translate(265.28151342306774 210.72487243892192) rotate(0 11.863691378551266 25.650386326958824)" fill-rule="evenodd"><path d="M0 0 L-0.08 51.3 L23.8 27.15 L0 0" stroke="none" stroke-width="0" fill="#228be6" fill-rule="evenodd"></path><path d="M0 0 C-0.02 13.95, -0.04 27.89, -0.08 51.3 M0 0 C-0.02 12.63, -0.04 25.26, -0.08 51.3 M-0.08 51.3 C7.84 43.29, 15.76 35.29, 23.8 27.15 M-0.08 51.3 C8.83 42.29, 17.74 33.28, 23.8 27.15 M23.8 27.15 C14.62 16.68, 5.44 6.21, 0 0 M23.8 27.15 C17.66 20.14, 11.51 13.12, 0 0 M0 0 C0 0, 0 0, 0 0 M0 0 C0 0, 0 0, 0 0" stroke="transparent" stroke-width="1" fill="none"></path></g></g><g stroke-linecap="round"><g transform="translate(266.8478308469075 261.824039879868) rotate(0 24.9292599882624 -11.73187258545613)" fill-rule="evenodd"><path d="M0 0 L23.34 -23.46 L49.86 -0.12 L0 0" stroke="none" stroke-width="0" fill="#28e6" fill-rule="evenodd"></path><path d="M0 0 C6.31 -6.35, 12.63 -12.7, 23.34 -23.46 M0 0 C8.71 -8.76, 17.42 -17.51, 23.34 -23.46 M23.34 -23.46 C33.64 -14.4, 43.95 -5.33, 49.86 -0.12 M23.34 -23.46 C33.75 -14.3, 44.17 -5.13, 49.86 -0.12 M49.86 -0.12 C39.39 -0.1, 28.91 -0.07, 0 0 M49.86 -0.12 C36.58 -0.09, 23.31 -0.06, 0 0 M0 0 C0 0, 0 0, 0 0 M0 0 C0 0, 0 0, 0 0" stroke="transparent" stroke-width="1" fill="none"></path></g></g><g stroke-linecap="round"><g transform="translate(316.5357617970749 210.78690481214107) rotate(0 -14.143381094429515 13.11209288962732)" fill-rule="evenodd"><path d="M0 0 L0.19 26.22 L-28.47 0.31 L0 0" stroke="none" stroke-width="0" fill="#28e6" fill-rule="evenodd"></path><path d="M0 0 C0.04 5.85, 0.08 11.69, 0.19 26.22 M0 0 C0.04 5.75, 0.08 11.5, 0.19 26.22 M0.19 26.22 C-9.18 17.75, -18.55 9.28, -28.47 0.31 M0.19 26.22 C-7.1 19.63, -14.39 13.04, -28.47 0.31 M-28.47 0.31 C-20.6 0.22, -12.73 0.14, 0 0 M-28.47 0.31 C-21.5 0.23, -14.53 0.16, 0 0 M0 0 C0 0, 0 0, 0 0 M0 0 C0 0, 0 0, 0 0" stroke="transparent" stroke-width="1" fill="none"></path></g></g><g stroke-linecap="round"><g transform="translate(289.9083655918748 237.29023627089236) rotate(0 2.0858385495621405 -5.350292190326854)" fill-rule="evenodd"><path d="M0 0 L13.35 -10.7 L-9.18 -10.55 L0 0" stroke="none" stroke-width="0" fill="#fab005" fill-rule="evenodd"></path><path d="M0 0 C3.81 -3.05, 7.61 -6.1, 13.35 -10.7 M0 0 C2.78 -2.23, 5.56 -4.46, 13.35 -10.7 M13.35 -10.7 C7.83 -10.66, 2.32 -10.62, -9.18 -10.55 M13.35 -10.7 C5.49 -10.65, -2.37 -10.59, -9.18 -10.55 M-9.18 -10.55 C-6.64 -7.63, -4.1 -4.71, 0 0 M-9.18 -10.55 C-6.01 -6.91, -2.84 -3.27, 0 0 M0 0 C0 0, 0 0, 0 0 M0 0 C0 0, 0 0, 0 0" stroke="transparent" stroke-width="1" fill="none"></path></g></g><g stroke-linecap="round"><g transform="translate(316.69084273012595 237.66243051022047) rotate(0 -6.994150080688087 11.468234999266087)" fill-rule="evenodd"><path d="M0 0 L0.16 22.94 L-14.14 10.41 L0 0" stroke="none" stroke-width="0" fill="#fab005" fill-rule="evenodd"></path><path d="M0 0 C0.04 6.19, 0.08 12.37, 0.16 22.94 M0 0 C0.04 6, 0.08 12.01, 0.16 22.94 M0.16 22.94 C-3.99 19.3, -8.14 15.67, -14.14 10.41 M0.16 22.94 C-3.55 19.69, -7.26 16.44, -14.14 10.41 M-14.14 10.41 C-9.76 7.18, -5.37 3.95, 0 0 M-14.14 10.41 C-10.49 7.72, -6.84 5.03, 0 0 M0 0 C0 0, 0 0, 0 0 M0 0 C0 0, 0 0, 0 0" stroke="transparent" stroke-width="1" fill="none"></path></g></g><g stroke-linecap="round"><g transform="translate(290.9163916567177 237.7709871633583) rotate(0 12.297917991099439 -0.5195211257275787)" fill-rule="evenodd"><path d="M0 0 L11.09 9.62 L24.6 -0.54 L13.32 -10.65 L0 0" stroke="none" stroke-width="0" fill="#8c1e" fill-rule="evenodd"></path><path d="M0 0 C3.49 3.02, 6.97 6.04, 11.09 9.62 M0 0 C4.02 3.49, 8.05 6.98, 11.09 9.62 M11.09 9.62 C15.76 6.1, 20.43 2.59, 24.6 -0.54 M11.09 9.62 C14.09 7.35, 17.1 5.09, 24.6 -0.54 M24.6 -0.54 C20.15 -4.53, 15.7 -8.52, 13.32 -10.65 M24.6 -0.54 C21.94 -2.92, 19.29 -5.31, 13.32 -10.65 M13.32 -10.65 C9.69 -7.75, 6.05 -4.84, 0 0 M13.32 -10.65 C10.54 -8.43, 7.76 -6.21, 0 0 M0 0 C0 0, 0 0, 0 0 M0 0 C0 0, 0 0, 0 0" stroke="transparent" stroke-width="1" fill="none"></path></g></g><g stroke-linecap="round"><g transform="translate(266.4291123276689 210.7248724389192) rotate(0 18.097944887279937 7.459392879847201)" fill-rule="evenodd"><path d="M0 0 L13.46 14.92 L36.2 14.9 L20.39 0.42 L0 0" stroke="none" stroke-width="0" fill="#8c1e" fill-rule="evenodd"></path><path d="M0 0 C3.15 3.49, 6.3 6.98, 13.46 14.92 M0 0 C3.7 4.1, 7.41 8.21, 13.46 14.92 M13.46 14.92 C21.72 14.91, 29.98 14.91, 36.2 14.9 M13.46 14.92 C18.54 14.92, 23.62 14.91, 36.2 14.9 M36.2 14.9 C32.02 11.07, 27.84 7.24, 20.39 0.42 M36.2 14.9 C31.41 10.52, 26.63 6.14, 20.39 0.42 M20.39 0.42 C16.2 0.33, 12.01 0.25, 0 0 M20.39 0.42 C12.96 0.27, 5.53 0.11, 0 0 M0 0 C0 0, 0 0, 0 0 M0 0 C0 0, 0 0, 0 0" stroke="transparent" stroke-width="1" fill="none"></path></g></g><g stroke-linecap="round"><g transform="translate(283.18990136380125 144.85761120365078) rotate(0 7.115384615384755 -0.19230769230762235)"><path d="M0 0 C5.32 -0.14, 10.64 -0.29, 14.23 -0.38 M0 0 C3.71 -0.1, 7.42 -0.2, 14.23 -0.38" stroke="#000" stroke-width="1" fill="none"></path></g></g><g stroke-linecap="round"><g transform="translate(279.34374751764517 151.7806881267279) rotate(0 11.153846153846189 0)"><path d="M0 0 C7.5 0, 14.99 0, 22.31 0 M0 0 C7.27 0, 14.53 0, 22.31 0" stroke="#000" stroke-width="1" fill="none"></path></g></g><g stroke-linecap="round"><g transform="translate(273.5745167484147 160.24222658826602) rotate(0 16.730769230769056 0)"><path d="M0 0 C13.3 0, 26.59 0, 33.46 0 M0 0 C8.94 0, 17.87 0, 33.46 0" stroke="#000" stroke-width="1" fill="none"></path></g></g><g stroke-linecap="round"><g transform="translate(268.95913213303174 168.31914966518934) rotate(0 21.15384615384619 -0.38461538461547207)"><path d="M0 0 C9.98 -0.18, 19.96 -0.36, 42.31 -0.77 M0 0 C15.02 -0.27, 30.04 -0.55, 42.31 -0.77" stroke="#000" stroke-width="1" fill="none"></path></g></g><g stroke-linecap="round"><g transform="translate(264.34374751764517 175.62684197288127) rotate(0 26.34615384615381 -0.3846153846152447)"><path d="M0 0 C12.97 -0.19, 25.95 -0.38, 52.69 -0.77 M0 0 C17.47 -0.26, 34.95 -0.51, 52.69 -0.77" stroke="#000" stroke-width="1" fill="none"></path></g></g><g stroke-linecap="round"><g transform="translate(260.1129782868775 183.31914966518934) rotate(0 30 -0.5769230769230944)"><path d="M0 0 C22.39 -0.43, 44.78 -0.86, 60 -1.15 M0 0 C23.31 -0.45, 46.62 -0.9, 60 -1.15" stroke="#000" stroke-width="1" fill="none"></path></g></g><g stroke-linecap="round"><g transform="translate(255.11297828687748 190.62684197288127) rotate(0 34.80769230769238 -0.5769230769230944)"><path d="M0 0 C15.26 -0.25, 30.53 -0.51, 69.62 -1.15 M0 0 C22.76 -0.38, 45.51 -0.75, 69.62 -1.15" stroke="#000" stroke-width="1" fill="none"></path></g></g><g stroke-linecap="round"><g transform="translate(251.65143982533846 197.5499188959584) rotate(0 38.46153846153857 -0.3846153846152447)"><path d="M0 0 C16.03 -0.16, 32.05 -0.32, 76.92 -0.77 M0 0 C18.84 -0.19, 37.68 -0.38, 76.92 -0.77" stroke="#000" stroke-width="1" fill="none"></path></g></g><g stroke-linecap="round"><g transform="translate(247.42067059457077 205.24222658826602) rotate(0 43.26923076923049 -0.38461538461547207)"><path d="M0 0 C22.65 -0.2, 45.31 -0.4, 86.54 -0.77 M0 0 C25.1 -0.22, 50.21 -0.45, 86.54 -0.77" stroke="#000" stroke-width="1" fill="none"></path></g></g><g stroke-linecap="round"><g transform="translate(241.65143982533846 214.47299581903553) rotate(0 49.42307692307713 -0.19230769230762235)"><path d="M0 0 C35.88 -0.14, 71.76 -0.28, 98.85 -0.38 M0 0 C34.2 -0.13, 68.39 -0.27, 98.85 -0.38" stroke="#000" stroke-width="1" fill="none"></path></g></g><g stroke-linecap="round"><g transform="translate(232.22836290226223 258.89607274211266) rotate(0 57.5 -0.19230769230762235)"><path d="M0 0 C31.63 -0.11, 63.26 -0.21, 115 -0.38 M0 0 C41.79 -0.14, 83.58 -0.28, 115 -0.38" stroke="#000" stroke-width="1" fill="none"></path></g></g><g stroke-linecap="round"><g transform="translate(231.45913213302993 267.3576112036508) rotate(0 57.5 -0.19230769230762235)"><path d="M0 0 C29.97 -0.1, 59.93 -0.2, 115 -0.38 M0 0 C25.93 -0.09, 51.87 -0.17, 115 -0.38" stroke="#000" stroke-width="1" fill="none"></path></g></g><g stroke-linecap="round"><g transform="translate(184.0733650881175 326.4555329424661) rotate(0 -4.68236724247663 40.12649572113423)" fill-rule="evenodd"><path d="M0 0 L-9.52 2.56 L-15.22 5.7 L-19.26 12.04 L-21.48 23.83 L-22.72 39.68 L-22.67 55.54 L-21.06 67.4 L-17.06 74.31 L-11.06 78.38 L-4.64 80.12 L0.6 80.03 L4.45 78.25 L7.67 74.5 L10.22 68.71 L12.04 60.78 L13.12 48.85 L13.15 18.68 L12.04 7.82 L9.59 2.51 L6.02 0.6 L0 0" stroke="none" stroke-width="0" fill="#fff" fill-rule="evenodd"></path><path d="M0 0 C-3.21 2.01, -15.75 0.8, -19.26 12.04 C-22.77 23.27, -24.37 56.06, -21.06 67.4 C-17.75 78.73, -4.91 81.14, 0.6 80.03 C6.12 78.93, 10.13 72.81, 12.04 60.78 C13.94 48.74, 14.04 17.95, 12.04 7.82 C10.03 -2.31, 2.01 1.3, 0 0 M0 0 C-3.21 2.01, -15.75 0.8, -19.26 12.04 C-22.77 23.27, -24.37 56.06, -21.06 67.4 C-17.75 78.73, -4.91 81.14, 0.6 80.03 C6.12 78.93, 10.13 72.81, 12.04 60.78 C13.94 48.74, 14.04 17.95, 12.04 7.82 C10.03 -2.31, 2.01 1.3, 0 0" stroke="#000" stroke-width="1" fill="none"></path></g></g><g stroke-linecap="round" transform="translate(175.98079547456837 347.9909407036562) rotate(0 1.7315124715787533 3.6034178462580257)"><path d="M3.46 3.6 C3.46 3.81, 3.45 4.02, 3.44 4.23 C3.42 4.43, 3.39 4.64, 3.36 4.84 C3.32 5.03, 3.28 5.22, 3.23 5.41 C3.18 5.59, 3.12 5.76, 3.06 5.92 C2.99 6.08, 2.92 6.23, 2.84 6.36 C2.77 6.5, 2.68 6.62, 2.6 6.72 C2.51 6.83, 2.42 6.92, 2.32 6.99 C2.23 7.06, 2.13 7.12, 2.03 7.15 C1.93 7.19, 1.83 7.21, 1.73 7.21 C1.63 7.21, 1.53 7.19, 1.43 7.15 C1.33 7.12, 1.23 7.06, 1.14 6.99 C1.05 6.92, 0.95 6.83, 0.87 6.72 C0.78 6.62, 0.7 6.5, 0.62 6.36 C0.54 6.23, 0.47 6.08, 0.41 5.92 C0.34 5.76, 0.28 5.59, 0.23 5.41 C0.18 5.22, 0.14 5.03, 0.1 4.84 C0.07 4.64, 0.04 4.43, 0.03 4.23 C0.01 4.02, 0 3.81, 0 3.6 C0 3.39, 0.01 3.18, 0.03 2.98 C0.04 2.77, 0.07 2.57, 0.1 2.37 C0.14 2.17, 0.18 1.98, 0.23 1.8 C0.28 1.62, 0.34 1.45, 0.41 1.29 C0.47 1.13, 0.54 0.98, 0.62 0.84 C0.7 0.71, 0.78 0.59, 0.87 0.48 C0.95 0.38, 1.05 0.29, 1.14 0.22 C1.23 0.15, 1.33 0.09, 1.43 0.05 C1.53 0.02, 1.63 0, 1.73 0 C1.83 0, 1.93 0.02, 2.03 0.05 C2.13 0.09, 2.23 0.15, 2.32 0.22 C2.42 0.29, 2.51 0.38, 2.6 0.48 C2.68 0.59, 2.77 0.71, 2.84 0.84 C2.92 0.98, 2.99 1.13, 3.06 1.29 C3.12 1.45, 3.18 1.62, 3.23 1.8 C3.28 1.98, 3.32 2.17, 3.36 2.37 C3.39 2.57, 3.42 2.77, 3.44 2.98 C3.45 3.18, 3.46 3.5, 3.46 3.6 C3.47 3.71, 3.47 3.5, 3.46 3.6" stroke="#000" stroke-width="1" fill="none"></path></g><g stroke-linecap="round" transform="translate(166.9664720300807 336.6852830625776) rotate(0 5.4157500635874385 4.814000056522218)"><path d="M10.83 4.81 C10.83 5.09, 10.8 5.38, 10.75 5.65 C10.69 5.92, 10.61 6.2, 10.5 6.46 C10.4 6.72, 10.26 6.98, 10.11 7.22 C9.95 7.46, 9.77 7.69, 9.56 7.91 C9.36 8.12, 9.14 8.32, 8.9 8.5 C8.66 8.68, 8.4 8.84, 8.12 8.98 C7.85 9.12, 7.56 9.24, 7.27 9.34 C6.97 9.43, 6.66 9.51, 6.36 9.55 C6.05 9.6, 5.73 9.63, 5.42 9.63 C5.1 9.63, 4.78 9.6, 4.48 9.55 C4.17 9.51, 3.86 9.43, 3.56 9.34 C3.27 9.24, 2.98 9.12, 2.71 8.98 C2.44 8.84, 2.17 8.68, 1.93 8.5 C1.69 8.32, 1.47 8.12, 1.27 7.91 C1.07 7.69, 0.88 7.46, 0.73 7.22 C0.57 6.98, 0.43 6.72, 0.33 6.46 C0.22 6.2, 0.14 5.92, 0.08 5.65 C0.03 5.38, 0 5.09, 0 4.81 C0 4.54, 0.03 4.25, 0.08 3.98 C0.14 3.7, 0.22 3.43, 0.33 3.17 C0.43 2.91, 0.57 2.65, 0.73 2.41 C0.88 2.17, 1.07 1.93, 1.27 1.72 C1.47 1.51, 1.69 1.31, 1.93 1.13 C2.17 0.95, 2.44 0.78, 2.71 0.64 C2.98 0.51, 3.27 0.39, 3.56 0.29 C3.86 0.2, 4.17 0.12, 4.48 0.07 C4.78 0.02, 5.1 0, 5.42 0 C5.73 0, 6.05 0.02, 6.36 0.07 C6.66 0.12, 6.97 0.2, 7.27 0.29 C7.56 0.39, 7.85 0.51, 8.12 0.64 C8.4 0.78, 8.66 0.95, 8.9 1.13 C9.14 1.31, 9.36 1.51, 9.56 1.72 C9.77 1.93, 9.95 2.17, 10.11 2.41 C10.26 2.65, 10.4 2.91, 10.5 3.17 C10.61 3.43, 10.69 3.7, 10.75 3.98 C10.8 4.25, 10.82 4.67, 10.83 4.81 C10.85 4.95, 10.85 4.67, 10.83 4.81" stroke="#000" stroke-width="1" fill="none"></path></g><g stroke-linecap="round" transform="translate(182.90425078865883 336.6852830625776) rotate(0 5.4157500635874385 4.814000056522218)"><path d="M10.83 4.81 C10.83 5.09, 10.8 5.38, 10.75 5.65 C10.69 5.92, 10.61 6.2, 10.5 6.46 C10.4 6.72, 10.26 6.98, 10.11 7.22 C9.95 7.46, 9.77 7.69, 9.56 7.91 C9.36 8.12, 9.14 8.32, 8.9 8.5 C8.66 8.68, 8.4 8.84, 8.12 8.98 C7.85 9.12, 7.56 9.24, 7.27 9.34 C6.97 9.43, 6.66 9.51, 6.36 9.55 C6.05 9.6, 5.73 9.63, 5.42 9.63 C5.1 9.63, 4.78 9.6, 4.48 9.55 C4.17 9.51, 3.86 9.43, 3.56 9.34 C3.27 9.24, 2.98 9.12, 2.71 8.98 C2.44 8.84, 2.17 8.68, 1.93 8.5 C1.69 8.32, 1.47 8.12, 1.27 7.91 C1.07 7.69, 0.88 7.46, 0.73 7.22 C0.57 6.98, 0.43 6.72, 0.33 6.46 C0.22 6.2, 0.14 5.92, 0.08 5.65 C0.03 5.38, 0 5.09, 0 4.81 C0 4.54, 0.03 4.25, 0.08 3.98 C0.14 3.7, 0.22 3.43, 0.33 3.17 C0.43 2.91, 0.57 2.65, 0.73 2.41 C0.88 2.17, 1.07 1.93, 1.27 1.72 C1.47 1.51, 1.69 1.31, 1.93 1.13 C2.17 0.95, 2.44 0.78, 2.71 0.64 C2.98 0.51, 3.27 0.39, 3.56 0.29 C3.86 0.2, 4.17 0.12, 4.48 0.07 C4.78 0.02, 5.1 0, 5.42 0 C5.73 0, 6.05 0.02, 6.36 0.07 C6.66 0.12, 6.97 0.2, 7.27 0.29 C7.56 0.39, 7.85 0.51, 8.12 0.64 C8.4 0.78, 8.66 0.95, 8.9 1.13 C9.14 1.31, 9.36 1.51, 9.56 1.72 C9.77 1.93, 9.95 2.17, 10.11 2.41 C10.26 2.65, 10.4 2.91, 10.5 3.17 C10.61 3.43, 10.69 3.7, 10.75 3.98 C10.8 4.25, 10.82 4.67, 10.83 4.81 C10.85 4.95, 10.85 4.67, 10.83 4.81" stroke="#000" stroke-width="1" fill="none"></path></g><g stroke-linecap="round" transform="translate(168.85768633801126 340.79437596796015) rotate(0 1.0831500127173967 0.9628000113043527)"><path d="M2.17 0.96 C2.17 1.02, 2.16 1.08, 2.15 1.13 C2.14 1.18, 2.12 1.24, 2.1 1.29 C2.08 1.34, 2.05 1.4, 2.02 1.44 C1.99 1.49, 1.95 1.54, 1.91 1.58 C1.87 1.62, 1.83 1.66, 1.78 1.7 C1.73 1.74, 1.68 1.77, 1.62 1.8 C1.57 1.82, 1.51 1.85, 1.45 1.87 C1.39 1.89, 1.33 1.9, 1.27 1.91 C1.21 1.92, 1.15 1.93, 1.08 1.93 C1.02 1.93, 0.96 1.92, 0.9 1.91 C0.83 1.9, 0.77 1.89, 0.71 1.87 C0.65 1.85, 0.6 1.82, 0.54 1.8 C0.49 1.77, 0.43 1.74, 0.39 1.7 C0.34 1.66, 0.29 1.62, 0.25 1.58 C0.21 1.54, 0.18 1.49, 0.15 1.44 C0.11 1.4, 0.09 1.34, 0.07 1.29 C0.04 1.24, 0.03 1.18, 0.02 1.13 C0.01 1.08, 0 1.02, 0 0.96 C0 0.91, 0.01 0.85, 0.02 0.8 C0.03 0.74, 0.04 0.69, 0.07 0.63 C0.09 0.58, 0.11 0.53, 0.15 0.48 C0.18 0.43, 0.21 0.39, 0.25 0.34 C0.29 0.3, 0.34 0.26, 0.39 0.23 C0.43 0.19, 0.49 0.16, 0.54 0.13 C0.6 0.1, 0.65 0.08, 0.71 0.06 C0.77 0.04, 0.83 0.02, 0.9 0.01 C0.96 0, 1.02 0, 1.08 0 C1.15 0, 1.21 0, 1.27 0.01 C1.33 0.02, 1.39 0.04, 1.45 0.06 C1.51 0.08, 1.57 0.1, 1.62 0.13 C1.68 0.16, 1.73 0.19, 1.78 0.23 C1.83 0.26, 1.87 0.3, 1.91 0.34 C1.95 0.39, 1.99 0.43, 2.02 0.48 C2.05 0.53, 2.08 0.58, 2.1 0.63 C2.12 0.69, 2.14 0.74, 2.15 0.8 C2.16 0.85, 2.16 0.93, 2.17 0.96 C2.17 0.99, 2.17 0.93, 2.17 0.96" stroke="#000" stroke-width="1" fill="none"></path></g><g stroke-linecap="round" transform="translate(179.39702278334153 347.85054780055725) rotate(0 1.7315124715787533 3.6034178462580257)"><path d="M3.46 3.6 C3.46 3.81, 3.45 4.02, 3.44 4.23 C3.42 4.43, 3.39 4.64, 3.36 4.84 C3.32 5.03, 3.28 5.22, 3.23 5.41 C3.18 5.59, 3.12 5.76, 3.06 5.92 C2.99 6.08, 2.92 6.23, 2.84 6.36 C2.77 6.5, 2.68 6.62, 2.6 6.72 C2.51 6.83, 2.42 6.92, 2.32 6.99 C2.23 7.06, 2.13 7.12, 2.03 7.15 C1.93 7.19, 1.83 7.21, 1.73 7.21 C1.63 7.21, 1.53 7.19, 1.43 7.15 C1.33 7.12, 1.23 7.06, 1.14 6.99 C1.05 6.92, 0.95 6.83, 0.87 6.72 C0.78 6.62, 0.7 6.5, 0.62 6.36 C0.54 6.23, 0.47 6.08, 0.41 5.92 C0.34 5.76, 0.28 5.59, 0.23 5.41 C0.18 5.22, 0.14 5.03, 0.1 4.84 C0.07 4.64, 0.04 4.43, 0.03 4.23 C0.01 4.02, 0 3.81, 0 3.6 C0 3.39, 0.01 3.18, 0.03 2.98 C0.04 2.77, 0.07 2.57, 0.1 2.37 C0.14 2.17, 0.18 1.98, 0.23 1.8 C0.28 1.62, 0.34 1.45, 0.41 1.29 C0.47 1.13, 0.54 0.98, 0.62 0.84 C0.7 0.71, 0.78 0.59, 0.87 0.48 C0.95 0.38, 1.05 0.29, 1.14 0.22 C1.23 0.15, 1.33 0.09, 1.43 0.05 C1.53 0.02, 1.63 0, 1.73 0 C1.83 0, 1.93 0.02, 2.03 0.05 C2.13 0.09, 2.23 0.15, 2.32 0.22 C2.42 0.29, 2.51 0.38, 2.6 0.48 C2.68 0.59, 2.77 0.71, 2.84 0.84 C2.92 0.98, 2.99 1.13, 3.06 1.29 C3.12 1.45, 3.18 1.62, 3.23 1.8 C3.28 1.98, 3.32 2.17, 3.36 2.37 C3.39 2.57, 3.42 2.77, 3.44 2.98 C3.45 3.18, 3.46 3.5, 3.46 3.6 C3.47 3.71, 3.47 3.5, 3.46 3.6" stroke="#000" stroke-width="1" fill="none"></path></g><g stroke-linecap="round" transform="translate(185.56914367710306 340.6568331092035) rotate(0 1.0831500127173967 0.9628000113043527)"><path d="M2.17 0.96 C2.17 1.02, 2.16 1.08, 2.15 1.13 C2.14 1.18, 2.12 1.24, 2.1 1.29 C2.08 1.34, 2.05 1.4, 2.02 1.44 C1.99 1.49, 1.95 1.54, 1.91 1.58 C1.87 1.62, 1.83 1.66, 1.78 1.7 C1.73 1.74, 1.68 1.77, 1.62 1.8 C1.57 1.82, 1.51 1.85, 1.45 1.87 C1.39 1.89, 1.33 1.9, 1.27 1.91 C1.21 1.92, 1.15 1.93, 1.08 1.93 C1.02 1.93, 0.96 1.92, 0.9 1.91 C0.83 1.9, 0.77 1.89, 0.71 1.87 C0.65 1.85, 0.6 1.82, 0.54 1.8 C0.49 1.77, 0.43 1.74, 0.39 1.7 C0.34 1.66, 0.29 1.62, 0.25 1.58 C0.21 1.54, 0.18 1.49, 0.15 1.44 C0.11 1.4, 0.09 1.34, 0.07 1.29 C0.04 1.24, 0.03 1.18, 0.02 1.13 C0.01 1.08, 0 1.02, 0 0.96 C0 0.91, 0.01 0.85, 0.02 0.8 C0.03 0.74, 0.04 0.69, 0.07 0.63 C0.09 0.58, 0.11 0.53, 0.15 0.48 C0.18 0.43, 0.21 0.39, 0.25 0.34 C0.29 0.3, 0.34 0.26, 0.39 0.23 C0.43 0.19, 0.49 0.16, 0.54 0.13 C0.6 0.1, 0.65 0.08, 0.71 0.06 C0.77 0.04, 0.83 0.02, 0.9 0.01 C0.96 0, 1.02 0, 1.08 0 C1.15 0, 1.21 0, 1.27 0.01 C1.33 0.02, 1.39 0.04, 1.45 0.06 C1.51 0.08, 1.57 0.1, 1.62 0.13 C1.68 0.16, 1.73 0.19, 1.78 0.23 C1.83 0.26, 1.87 0.3, 1.91 0.34 C1.95 0.39, 1.99 0.43, 2.02 0.48 C2.05 0.53, 2.08 0.58, 2.1 0.63 C2.12 0.69, 2.14 0.74, 2.15 0.8 C2.16 0.85, 2.16 0.93, 2.17 0.96 C2.17 0.99, 2.17 0.93, 2.17 0.96" stroke="#000" stroke-width="1" fill="none"></path></g><g stroke-linecap="round"><g transform="translate(177.41714082804356 347.64793573937004) rotate(0 2.398524792097305 1.498071784525564)" fill-rule="evenodd"><path d="M0 0 L-2.78 2.66 L7.54 3.35 L6.99 1.56 L5.16 -0.28 L0 0" stroke="none" stroke-width="0" fill="#fff" fill-rule="evenodd"></path><path d="M0 0 C-0.46 0.44, -3.19 2.22, -2.78 2.66 C-2.37 3.1, 0.76 2.52, 2.48 2.64 C4.2 2.75, 7.09 3.83, 7.54 3.35 C7.98 2.86, 6.41 0.28, 5.16 -0.28 C3.9 -0.84, 0.86 -0.05, 0 0 M0 0 C-0.46 0.44, -3.19 2.22, -2.78 2.66 C-2.37 3.1, 0.76 2.52, 2.48 2.64 C4.2 2.75, 7.09 3.83, 7.54 3.35 C7.98 2.86, 6.41 0.28, 5.16 -0.28 C3.9 -0.84, 0.86 -0.05, 0 0" stroke="#000" stroke-width="1" fill="none"></path></g></g><g stroke-linecap="round" transform="translate(176.68722465501378 345.18356445910695) rotate(0 3.3526071822207086 1.7880571638509082)"><path d="M6.71 1.79 C6.71 1.89, 6.69 2, 6.65 2.1 C6.62 2.2, 6.57 2.3, 6.5 2.4 C6.44 2.5, 6.35 2.59, 6.26 2.68 C6.16 2.77, 6.05 2.86, 5.92 2.94 C5.8 3.02, 5.66 3.09, 5.51 3.16 C5.36 3.22, 5.2 3.28, 5.03 3.34 C4.86 3.39, 4.68 3.43, 4.5 3.47 C4.32 3.5, 4.13 3.53, 3.93 3.55 C3.74 3.57, 3.55 3.58, 3.35 3.58 C3.16 3.58, 2.96 3.57, 2.77 3.55 C2.58 3.53, 2.39 3.5, 2.21 3.47 C2.02 3.43, 1.84 3.39, 1.68 3.34 C1.51 3.28, 1.35 3.22, 1.2 3.16 C1.05 3.09, 0.91 3.02, 0.78 2.94 C0.66 2.86, 0.55 2.77, 0.45 2.68 C0.35 2.59, 0.27 2.5, 0.2 2.4 C0.14 2.3, 0.08 2.2, 0.05 2.1 C0.02 2, 0 1.89, 0 1.79 C0 1.68, 0.02 1.58, 0.05 1.48 C0.08 1.38, 0.14 1.27, 0.2 1.18 C0.27 1.08, 0.35 0.98, 0.45 0.89 C0.55 0.8, 0.66 0.72, 0.78 0.64 C0.91 0.56, 1.05 0.48, 1.2 0.42 C1.35 0.35, 1.51 0.29, 1.68 0.24 C1.84 0.19, 2.02 0.14, 2.21 0.11 C2.39 0.07, 2.58 0.05, 2.77 0.03 C2.96 0.01, 3.16 0, 3.35 0 C3.55 0, 3.74 0.01, 3.93 0.03 C4.13 0.05, 4.32 0.07, 4.5 0.11 C4.68 0.14, 4.86 0.19, 5.03 0.24 C5.2 0.29, 5.36 0.35, 5.51 0.42 C5.66 0.48, 5.8 0.56, 5.92 0.64 C6.05 0.72, 6.16 0.8, 6.26 0.89 C6.35 0.98, 6.44 1.08, 6.5 1.18 C6.57 1.27, 6.62 1.38, 6.65 1.48 C6.69 1.58, 6.7 1.74, 6.71 1.79 C6.71 1.84, 6.71 1.74, 6.71 1.79" stroke="none" stroke-width="0" fill="#000"></path><path d="M6.71 1.79 C6.71 1.89, 6.69 2, 6.65 2.1 C6.62 2.2, 6.57 2.3, 6.5 2.4 C6.44 2.5, 6.35 2.59, 6.26 2.68 C6.16 2.77, 6.05 2.86, 5.92 2.94 C5.8 3.02, 5.66 3.09, 5.51 3.16 C5.36 3.22, 5.2 3.28, 5.03 3.34 C4.86 3.39, 4.68 3.43, 4.5 3.47 C4.32 3.5, 4.13 3.53, 3.93 3.55 C3.74 3.57, 3.55 3.58, 3.35 3.58 C3.16 3.58, 2.96 3.57, 2.77 3.55 C2.58 3.53, 2.39 3.5, 2.21 3.47 C2.02 3.43, 1.84 3.39, 1.68 3.34 C1.51 3.28, 1.35 3.22, 1.2 3.16 C1.05 3.09, 0.91 3.02, 0.78 2.94 C0.66 2.86, 0.55 2.77, 0.45 2.68 C0.35 2.59, 0.27 2.5, 0.2 2.4 C0.14 2.3, 0.08 2.2, 0.05 2.1 C0.02 2, 0 1.89, 0 1.79 C0 1.68, 0.02 1.58, 0.05 1.48 C0.08 1.38, 0.14 1.27, 0.2 1.18 C0.27 1.08, 0.35 0.98, 0.45 0.89 C0.55 0.8, 0.66 0.72, 0.78 0.64 C0.91 0.56, 1.05 0.48, 1.2 0.42 C1.35 0.35, 1.51 0.29, 1.68 0.24 C1.84 0.19, 2.02 0.14, 2.21 0.11 C2.39 0.07, 2.58 0.05, 2.77 0.03 C2.96 0.01, 3.16 0, 3.35 0 C3.55 0, 3.74 0.01, 3.93 0.03 C4.13 0.05, 4.32 0.07, 4.5 0.11 C4.68 0.14, 4.86 0.19, 5.03 0.24 C5.2 0.29, 5.36 0.35, 5.51 0.42 C5.66 0.48, 5.8 0.56, 5.92 0.64 C6.05 0.72, 6.16 0.8, 6.26 0.89 C6.35 0.98, 6.44 1.08, 6.5 1.18 C6.57 1.27, 6.62 1.38, 6.65 1.48 C6.69 1.58, 6.7 1.74, 6.71 1.79 C6.71 1.84, 6.71 1.74, 6.71 1.79" stroke="#000" stroke-width="1" fill="none"></path></g><g stroke-linecap="round"><g transform="translate(109.95913518691668 114.23676610522398) rotate(0 23.75553232219454 38.03810131590808)"><path d="M-1.84 1.09 C-1.9 5.78, -3.04 20.44, 1.36 26.05 C5.77 31.65, 20.26 28.25, 24.59 34.72 C28.93 41.19, 23.83 57.84, 27.37 64.86 C30.91 71.88, 42.21 74.73, 45.83 76.86 M2.36 -0.78 C1.7 3.33, -4.86 15.83, -1.22 22.15 C2.42 28.47, 19.21 29.69, 24.2 37.14 C29.18 44.59, 24.43 60.27, 28.7 66.85 C32.97 73.43, 47.21 73.91, 49.82 76.61" stroke="#000" stroke-width="1" fill="none"></path></g></g><g stroke-linecap="round"><g transform="translate(451.9591351869167 122.23676610522398) rotate(0 -23.045002007773746 37.067225570082655)"><path d="M1.09 -0.64 C2.28 4.1, 8.44 19.93, 5.05 26.59 C1.65 33.26, -14.58 33.66, -19.28 39.37 C-23.98 45.08, -17.66 54.71, -23.14 60.83 C-28.62 66.95, -47.44 73.66, -52.14 76.08 M-1.76 -3.45 C-0.57 0.73, 7.26 16.65, 3.92 22.99 C0.58 29.33, -17.26 28.04, -21.78 34.58 C-26.3 41.13, -18.78 55.09, -23.18 62.26 C-27.57 69.42, -43.87 75.79, -48.14 77.59" stroke="#000" stroke-width="1" fill="none"></path></g></g><g stroke-linecap="round"><g transform="translate(345.9591351869167 272.236766105224) rotate(0 7.866664316132756 19.020140039026728)"><path d="M-0.64 2.05 C0.27 4.48, 0.76 10.25, 3.59 15.72 C6.43 21.19, 14.83 31.84, 16.37 34.86 M4.21 0.69 C5.15 3.4, 0.92 12.55, 2.76 18.66 C4.61 24.77, 13.73 34.58, 15.31 37.35" stroke="#000" stroke-width="1" fill="none"></path></g></g><g transform="translate(13.595498823282014 311.41858428704245) rotate(329.99999999999994 59 23)"><text x="0" y="32" font-family="Virgil, Segoe UI Emoji" font-size="36px" fill="#000" text-anchor="start" style="white-space: pre;" direction="ltr">Golang</text></g><g transform="translate(417.0547909668039 42.168584287041995) rotate(29.999999999999964 70.5 23)"><text x="0" y="32" font-family="Virgil, Segoe UI Emoji" font-size="36px" fill="#000" text-anchor="start" style="white-space: pre;" direction="ltr">Elm-lang</text></g><g transform="translate(205.59549882327883 522.4185842870429) rotate(0 97 23)"><text x="0" y="32" font-family="Virgil, Segoe UI Emoji" font-size="36px" fill="#000" text-anchor="start" style="white-space: pre;" direction="ltr">tree-sitter</text></g><g transform="translate(377.55658939479144 329.8873368738732) rotate(29.999999999999964 46 25)"><text x="0" y="36" font-family="Virgil, Segoe UI Emoji" font-size="36px" fill="#000" text-anchor="start" style="white-space: pre;" direction="ltr">⚡Zig</text></g><g stroke-linecap="round"><g transform="translate(524.8939350949377 399.6266606323147) rotate(353.44281177326627 18.27540069898714 59.8031435129742)"><path d="M21.49 0 C11.89 2.47, -26.66 -3.29, -36.12 14.82 C-45.59 32.92, -52.86 93.28, -35.3 108.65 C-17.74 124.01, 50.71 123.05, 69.23 107 C87.75 90.95, 83.77 30.18, 75.82 12.35 C67.86 -5.49, 30.55 2.06, 21.49 0 M21.49 0 C11.89 2.47, -26.66 -3.29, -36.12 14.82 C-45.59 32.92, -52.86 93.28, -35.3 108.65 C-17.74 124.01, 50.71 123.05, 69.23 107 C87.75 90.95, 83.77 30.18, 75.82 12.35 C67.86 -5.49, 30.55 2.06, 21.49 0" stroke="#000000" stroke-width="1" fill="none"></path></g></g><g stroke-linecap="round"><g transform="translate(521.8522107108474 388.89818587172704) rotate(353.44281177326627 21.431939727211557 70.13238113782495)"><path d="M25.2 0 C13.94 2.9, -31.26 -3.86, -42.36 17.37 C-53.46 38.61, -61.99 109.4, -41.4 127.41 C-20.81 145.43, 59.47 144.31, 81.19 125.48 C102.91 106.66, 98.24 35.39, 88.91 14.48 C79.58 -6.44, 35.82 2.41, 25.2 0 M25.2 0 C13.94 2.9, -31.26 -3.86, -42.36 17.37 C-53.46 38.61, -61.99 109.4, -41.4 127.41 C-20.81 145.43, 59.47 144.31, 81.19 125.48 C102.91 106.66, 98.24 35.39, 88.91 14.48 C79.58 -6.44, 35.82 2.41, 25.2 0" stroke="#000000" stroke-width="1" fill="none"></path></g></g><g stroke-linecap="round" transform="translate(496.3969712502585 519.0651584279367) rotate(339.67493259307446 3.292388115983158 3.292388115983158)"><path d="M6.58 3.29 C6.58 3.48, 6.57 3.68, 6.53 3.86 C6.5 4.05, 6.45 4.24, 6.39 4.42 C6.32 4.6, 6.24 4.77, 6.14 4.94 C6.05 5.1, 5.94 5.26, 5.81 5.41 C5.69 5.55, 5.55 5.69, 5.41 5.81 C5.26 5.94, 5.1 6.05, 4.94 6.14 C4.77 6.24, 4.6 6.32, 4.42 6.39 C4.24 6.45, 4.05 6.5, 3.86 6.53 C3.68 6.57, 3.48 6.58, 3.29 6.58 C3.1 6.58, 2.91 6.57, 2.72 6.53 C2.53 6.5, 2.35 6.45, 2.17 6.39 C1.99 6.32, 1.81 6.24, 1.65 6.14 C1.48 6.05, 1.32 5.94, 1.18 5.81 C1.03 5.69, 0.89 5.55, 0.77 5.41 C0.65 5.26, 0.54 5.1, 0.44 4.94 C0.35 4.77, 0.26 4.6, 0.2 4.42 C0.13 4.24, 0.08 4.05, 0.05 3.86 C0.02 3.68, 0 3.48, 0 3.29 C0 3.1, 0.02 2.91, 0.05 2.72 C0.08 2.53, 0.13 2.35, 0.2 2.17 C0.26 1.99, 0.35 1.81, 0.44 1.65 C0.54 1.48, 0.65 1.32, 0.77 1.18 C0.89 1.03, 1.03 0.89, 1.18 0.77 C1.32 0.65, 1.48 0.54, 1.65 0.44 C1.81 0.35, 1.99 0.26, 2.17 0.2 C2.35 0.13, 2.53 0.08, 2.72 0.05 C2.91 0.02, 3.1 0, 3.29 0 C3.48 0, 3.68 0.02, 3.86 0.05 C4.05 0.08, 4.24 0.13, 4.42 0.2 C4.6 0.26, 4.77 0.35, 4.94 0.44 C5.1 0.54, 5.26 0.65, 5.41 0.77 C5.55 0.89, 5.69 1.03, 5.81 1.18 C5.94 1.32, 6.05 1.48, 6.14 1.65 C6.24 1.81, 6.32 1.99, 6.39 2.17 C6.45 2.35, 6.5 2.53, 6.53 2.72 C6.57 2.91, 6.58 3.2, 6.58 3.29 C6.59 3.39, 6.59 3.2, 6.58 3.29" stroke="#000000" stroke-width="1" fill="none"></path></g><g stroke-linecap="round" transform="translate(505.05900505571844 521.123155146207) rotate(339.67493259307446 3.292388115983158 3.292388115983158)"><path d="M6.58 3.29 C6.58 3.48, 6.57 3.68, 6.53 3.86 C6.5 4.05, 6.45 4.24, 6.39 4.42 C6.32 4.6, 6.24 4.77, 6.14 4.94 C6.05 5.1, 5.94 5.26, 5.81 5.41 C5.69 5.55, 5.55 5.69, 5.41 5.81 C5.26 5.94, 5.1 6.05, 4.94 6.14 C4.77 6.24, 4.6 6.32, 4.42 6.39 C4.24 6.45, 4.05 6.5, 3.86 6.53 C3.68 6.57, 3.48 6.58, 3.29 6.58 C3.1 6.58, 2.91 6.57, 2.72 6.53 C2.53 6.5, 2.35 6.45, 2.17 6.39 C1.99 6.32, 1.81 6.24, 1.65 6.14 C1.48 6.05, 1.32 5.94, 1.18 5.81 C1.03 5.69, 0.89 5.55, 0.77 5.41 C0.65 5.26, 0.54 5.1, 0.44 4.94 C0.35 4.77, 0.26 4.6, 0.2 4.42 C0.13 4.24, 0.08 4.05, 0.05 3.86 C0.02 3.68, 0 3.48, 0 3.29 C0 3.1, 0.02 2.91, 0.05 2.72 C0.08 2.53, 0.13 2.35, 0.2 2.17 C0.26 1.99, 0.35 1.81, 0.44 1.65 C0.54 1.48, 0.65 1.32, 0.77 1.18 C0.89 1.03, 1.03 0.89, 1.18 0.77 C1.32 0.65, 1.48 0.54, 1.65 0.44 C1.81 0.35, 1.99 0.26, 2.17 0.2 C2.35 0.13, 2.53 0.08, 2.72 0.05 C2.91 0.02, 3.1 0, 3.29 0 C3.48 0, 3.68 0.02, 3.86 0.05 C4.05 0.08, 4.24 0.13, 4.42 0.2 C4.6 0.26, 4.77 0.35, 4.94 0.44 C5.1 0.54, 5.26 0.65, 5.41 0.77 C5.55 0.89, 5.69 1.03, 5.81 1.18 C5.94 1.32, 6.05 1.48, 6.14 1.65 C6.24 1.81, 6.32 1.99, 6.39 2.17 C6.45 2.35, 6.5 2.53, 6.53 2.72 C6.57 2.91, 6.58 3.2, 6.58 3.29 C6.59 3.39, 6.59 3.2, 6.58 3.29" stroke="#000000" stroke-width="1" fill="none"></path></g><g stroke-linecap="round" transform="translate(514.6929371892438 521.0656558486262) rotate(339.67493259307446 3.292388115983158 3.292388115983158)"><path d="M6.58 3.29 C6.58 3.48, 6.57 3.68, 6.53 3.86 C6.5 4.05, 6.45 4.24, 6.39 4.42 C6.32 4.6, 6.24 4.77, 6.14 4.94 C6.05 5.1, 5.94 5.26, 5.81 5.41 C5.69 5.55, 5.55 5.69, 5.41 5.81 C5.26 5.94, 5.1 6.05, 4.94 6.14 C4.77 6.24, 4.6 6.32, 4.42 6.39 C4.24 6.45, 4.05 6.5, 3.86 6.53 C3.68 6.57, 3.48 6.58, 3.29 6.58 C3.1 6.58, 2.91 6.57, 2.72 6.53 C2.53 6.5, 2.35 6.45, 2.17 6.39 C1.99 6.32, 1.81 6.24, 1.65 6.14 C1.48 6.05, 1.32 5.94, 1.18 5.81 C1.03 5.69, 0.89 5.55, 0.77 5.41 C0.65 5.26, 0.54 5.1, 0.44 4.94 C0.35 4.77, 0.26 4.6, 0.2 4.42 C0.13 4.24, 0.08 4.05, 0.05 3.86 C0.02 3.68, 0 3.48, 0 3.29 C0 3.1, 0.02 2.91, 0.05 2.72 C0.08 2.53, 0.13 2.35, 0.2 2.17 C0.26 1.99, 0.35 1.81, 0.44 1.65 C0.54 1.48, 0.65 1.32, 0.77 1.18 C0.89 1.03, 1.03 0.89, 1.18 0.77 C1.32 0.65, 1.48 0.54, 1.65 0.44 C1.81 0.35, 1.99 0.26, 2.17 0.2 C2.35 0.13, 2.53 0.08, 2.72 0.05 C2.91 0.02, 3.1 0, 3.29 0 C3.48 0, 3.68 0.02, 3.86 0.05 C4.05 0.08, 4.24 0.13, 4.42 0.2 C4.6 0.26, 4.77 0.35, 4.94 0.44 C5.1 0.54, 5.26 0.65, 5.41 0.77 C5.55 0.89, 5.69 1.03, 5.81 1.18 C5.94 1.32, 6.05 1.48, 6.14 1.65 C6.24 1.81, 6.32 1.99, 6.39 2.17 C6.45 2.35, 6.5 2.53, 6.53 2.72 C6.57 2.91, 6.58 3.2, 6.58 3.29 C6.59 3.39, 6.59 3.2, 6.58 3.29" stroke="#000000" stroke-width="1" fill="none"></path></g><g stroke-linecap="round" transform="translate(583.9025594201739 511.22927837412226) rotate(339.67493259307446 3.292388115983158 3.292388115983158)"><path d="M6.58 3.29 C6.58 3.48, 6.57 3.68, 6.53 3.86 C6.5 4.05, 6.45 4.24, 6.39 4.42 C6.32 4.6, 6.24 4.77, 6.14 4.94 C6.05 5.1, 5.94 5.26, 5.81 5.41 C5.69 5.55, 5.55 5.69, 5.41 5.81 C5.26 5.94, 5.1 6.05, 4.94 6.14 C4.77 6.24, 4.6 6.32, 4.42 6.39 C4.24 6.45, 4.05 6.5, 3.86 6.53 C3.68 6.57, 3.48 6.58, 3.29 6.58 C3.1 6.58, 2.91 6.57, 2.72 6.53 C2.53 6.5, 2.35 6.45, 2.17 6.39 C1.99 6.32, 1.81 6.24, 1.65 6.14 C1.48 6.05, 1.32 5.94, 1.18 5.81 C1.03 5.69, 0.89 5.55, 0.77 5.41 C0.65 5.26, 0.54 5.1, 0.44 4.94 C0.35 4.77, 0.26 4.6, 0.2 4.42 C0.13 4.24, 0.08 4.05, 0.05 3.86 C0.02 3.68, 0 3.48, 0 3.29 C0 3.1, 0.02 2.91, 0.05 2.72 C0.08 2.53, 0.13 2.35, 0.2 2.17 C0.26 1.99, 0.35 1.81, 0.44 1.65 C0.54 1.48, 0.65 1.32, 0.77 1.18 C0.89 1.03, 1.03 0.89, 1.18 0.77 C1.32 0.65, 1.48 0.54, 1.65 0.44 C1.81 0.35, 1.99 0.26, 2.17 0.2 C2.35 0.13, 2.53 0.08, 2.72 0.05 C2.91 0.02, 3.1 0, 3.29 0 C3.48 0, 3.68 0.02, 3.86 0.05 C4.05 0.08, 4.24 0.13, 4.42 0.2 C4.6 0.26, 4.77 0.35, 4.94 0.44 C5.1 0.54, 5.26 0.65, 5.41 0.77 C5.55 0.89, 5.69 1.03, 5.81 1.18 C5.94 1.32, 6.05 1.48, 6.14 1.65 C6.24 1.81, 6.32 1.99, 6.39 2.17 C6.45 2.35, 6.5 2.53, 6.53 2.72 C6.57 2.91, 6.58 3.2, 6.58 3.29 C6.59 3.39, 6.59 3.2, 6.58 3.29" stroke="#000000" stroke-width="1" fill="none"></path></g><g stroke-linecap="round"><g transform="translate(527.345565997859 482.48776491197077) rotate(339.67493259307446 17.696586123408906 9.465615833451466)"><path d="M0 0 C2.06 3.16, 6.45 17.97, 12.35 18.93 C18.25 19.89, 31.55 7.96, 35.39 5.76 M0 0 C2.06 3.16, 6.45 17.97, 12.35 18.93 C18.25 19.89, 31.55 7.96, 35.39 5.76" stroke="#000000" stroke-width="1" fill="none"></path></g></g><g stroke-linecap="round" transform="translate(501.4100270031904 418.98300512104333) rotate(360.747659213025 9.054067318953457 23.458265326379433)"><path d="M18.11 23.46 C18.11 24.82, 18.06 26.19, 17.97 27.53 C17.88 28.87, 17.74 30.21, 17.56 31.48 C17.38 32.76, 17.16 34.01, 16.9 35.19 C16.63 36.36, 16.33 37.5, 15.99 38.54 C15.65 39.58, 15.28 40.56, 14.87 41.43 C14.47 42.3, 14.03 43.09, 13.58 43.77 C13.13 44.45, 12.64 45.04, 12.15 45.5 C11.66 45.97, 11.14 46.32, 10.63 46.56 C10.11 46.8, 9.58 46.92, 9.05 46.92 C8.53 46.92, 8 46.8, 7.48 46.56 C6.97 46.32, 6.45 45.97, 5.96 45.5 C5.46 45.04, 4.98 44.45, 4.53 43.77 C4.07 43.09, 3.64 42.3, 3.23 41.43 C2.83 40.56, 2.46 39.58, 2.12 38.54 C1.78 37.5, 1.48 36.36, 1.21 35.19 C0.95 34.01, 0.73 32.76, 0.55 31.48 C0.37 30.21, 0.23 28.87, 0.14 27.53 C0.05 26.19, 0 24.82, 0 23.46 C0 22.1, 0.05 20.72, 0.14 19.38 C0.23 18.05, 0.37 16.71, 0.55 15.44 C0.73 14.16, 0.95 12.91, 1.21 11.73 C1.48 10.55, 1.78 9.42, 2.12 8.38 C2.46 7.34, 2.83 6.36, 3.23 5.49 C3.64 4.62, 4.07 3.82, 4.53 3.14 C4.98 2.46, 5.46 1.88, 5.96 1.41 C6.45 0.95, 6.97 0.59, 7.48 0.36 C8 0.12, 8.53 0, 9.05 0 C9.58 0, 10.11 0.12, 10.63 0.36 C11.14 0.59, 11.66 0.95, 12.15 1.41 C12.64 1.88, 13.13 2.46, 13.58 3.14 C14.03 3.82, 14.47 4.62, 14.87 5.49 C15.28 6.36, 15.65 7.34, 15.99 8.38 C16.33 9.42, 16.63 10.55, 16.9 11.73 C17.16 12.91, 17.38 14.16, 17.56 15.44 C17.74 16.71, 17.88 18.05, 17.97 19.38 C18.06 20.72, 18.09 22.78, 18.11 23.46 C18.13 24.14, 18.13 22.78, 18.11 23.46" stroke="none" stroke-width="0" fill="#000"></path><path d="M18.11 23.46 C18.11 24.82, 18.06 26.19, 17.97 27.53 C17.88 28.87, 17.74 30.21, 17.56 31.48 C17.38 32.76, 17.16 34.01, 16.9 35.19 C16.63 36.36, 16.33 37.5, 15.99 38.54 C15.65 39.58, 15.28 40.56, 14.87 41.43 C14.47 42.3, 14.03 43.09, 13.58 43.77 C13.13 44.45, 12.64 45.04, 12.15 45.5 C11.66 45.97, 11.14 46.32, 10.63 46.56 C10.11 46.8, 9.58 46.92, 9.05 46.92 C8.53 46.92, 8 46.8, 7.48 46.56 C6.97 46.32, 6.45 45.97, 5.96 45.5 C5.46 45.04, 4.98 44.45, 4.53 43.77 C4.07 43.09, 3.64 42.3, 3.23 41.43 C2.83 40.56, 2.46 39.58, 2.12 38.54 C1.78 37.5, 1.48 36.36, 1.21 35.19 C0.95 34.01, 0.73 32.76, 0.55 31.48 C0.37 30.21, 0.23 28.87, 0.14 27.53 C0.05 26.19, 0 24.82, 0 23.46 C0 22.1, 0.05 20.72, 0.14 19.38 C0.23 18.05, 0.37 16.71, 0.55 15.44 C0.73 14.16, 0.95 12.91, 1.21 11.73 C1.48 10.55, 1.78 9.42, 2.12 8.38 C2.46 7.34, 2.83 6.36, 3.23 5.49 C3.64 4.62, 4.07 3.82, 4.53 3.14 C4.98 2.46, 5.46 1.88, 5.96 1.41 C6.45 0.95, 6.97 0.59, 7.48 0.36 C8 0.12, 8.53 0, 9.05 0 C9.58 0, 10.11 0.12, 10.63 0.36 C11.14 0.59, 11.66 0.95, 12.15 1.41 C12.64 1.88, 13.13 2.46, 13.58 3.14 C14.03 3.82, 14.47 4.62, 14.87 5.49 C15.28 6.36, 15.65 7.34, 15.99 8.38 C16.33 9.42, 16.63 10.55, 16.9 11.73 C17.16 12.91, 17.38 14.16, 17.56 15.44 C17.74 16.71, 17.88 18.05, 17.97 19.38 C18.06 20.72, 18.09 22.78, 18.11 23.46 C18.13 24.14, 18.13 22.78, 18.11 23.46" stroke="#000000" stroke-width="1" fill="none"></path></g><g stroke-linecap="round" transform="translate(504.0030630111196 424.29861149077215) rotate(369.8539733921081 3.877220215532816 8.642518804455676)"><path d="M7.75 8.64 C7.75 9.14, 7.73 9.65, 7.7 10.14 C7.66 10.64, 7.6 11.13, 7.52 11.6 C7.44 12.07, 7.35 12.53, 7.23 12.96 C7.12 13.4, 6.99 13.81, 6.85 14.2 C6.7 14.58, 6.54 14.94, 6.37 15.26 C6.2 15.58, 6.01 15.88, 5.82 16.13 C5.62 16.38, 5.41 16.59, 5.2 16.76 C4.99 16.93, 4.77 17.07, 4.55 17.15 C4.33 17.24, 4.1 17.29, 3.88 17.29 C3.65 17.29, 3.42 17.24, 3.2 17.15 C2.98 17.07, 2.76 16.93, 2.55 16.76 C2.34 16.59, 2.13 16.38, 1.94 16.13 C1.74 15.88, 1.56 15.58, 1.38 15.26 C1.21 14.94, 1.05 14.58, 0.91 14.2 C0.76 13.81, 0.63 13.4, 0.52 12.96 C0.41 12.53, 0.31 12.07, 0.23 11.6 C0.16 11.13, 0.1 10.64, 0.06 10.14 C0.02 9.65, 0 9.14, 0 8.64 C0 8.14, 0.02 7.63, 0.06 7.14 C0.1 6.65, 0.16 6.16, 0.23 5.69 C0.31 5.22, 0.41 4.75, 0.52 4.32 C0.63 3.89, 0.76 3.47, 0.91 3.09 C1.05 2.7, 1.21 2.34, 1.38 2.02 C1.56 1.7, 1.74 1.41, 1.94 1.16 C2.13 0.91, 2.34 0.69, 2.55 0.52 C2.76 0.35, 2.98 0.22, 3.2 0.13 C3.42 0.04, 3.65 0, 3.88 0 C4.1 0, 4.33 0.04, 4.55 0.13 C4.77 0.22, 4.99 0.35, 5.2 0.52 C5.41 0.69, 5.62 0.91, 5.82 1.16 C6.01 1.41, 6.2 1.7, 6.37 2.02 C6.54 2.34, 6.7 2.7, 6.85 3.09 C6.99 3.47, 7.12 3.89, 7.23 4.32 C7.35 4.75, 7.44 5.22, 7.52 5.69 C7.6 6.16, 7.66 6.65, 7.7 7.14 C7.73 7.63, 7.74 8.39, 7.75 8.64 C7.76 8.89, 7.76 8.39, 7.75 8.64" stroke="none" stroke-width="0" fill="#fff"></path><path d="M7.75 8.64 C7.75 9.14, 7.73 9.65, 7.7 10.14 C7.66 10.64, 7.6 11.13, 7.52 11.6 C7.44 12.07, 7.35 12.53, 7.23 12.96 C7.12 13.4, 6.99 13.81, 6.85 14.2 C6.7 14.58, 6.54 14.94, 6.37 15.26 C6.2 15.58, 6.01 15.88, 5.82 16.13 C5.62 16.38, 5.41 16.59, 5.2 16.76 C4.99 16.93, 4.77 17.07, 4.55 17.15 C4.33 17.24, 4.1 17.29, 3.88 17.29 C3.65 17.29, 3.42 17.24, 3.2 17.15 C2.98 17.07, 2.76 16.93, 2.55 16.76 C2.34 16.59, 2.13 16.38, 1.94 16.13 C1.74 15.88, 1.56 15.58, 1.38 15.26 C1.21 14.94, 1.05 14.58, 0.91 14.2 C0.76 13.81, 0.63 13.4, 0.52 12.96 C0.41 12.53, 0.31 12.07, 0.23 11.6 C0.16 11.13, 0.1 10.64, 0.06 10.14 C0.02 9.65, 0 9.14, 0 8.64 C0 8.14, 0.02 7.63, 0.06 7.14 C0.1 6.65, 0.16 6.16, 0.23 5.69 C0.31 5.22, 0.41 4.75, 0.52 4.32 C0.63 3.89, 0.76 3.47, 0.91 3.09 C1.05 2.7, 1.21 2.34, 1.38 2.02 C1.56 1.7, 1.74 1.41, 1.94 1.16 C2.13 0.91, 2.34 0.69, 2.55 0.52 C2.76 0.35, 2.98 0.22, 3.2 0.13 C3.42 0.04, 3.65 0, 3.88 0 C4.1 0, 4.33 0.04, 4.55 0.13 C4.77 0.22, 4.99 0.35, 5.2 0.52 C5.41 0.69, 5.62 0.91, 5.82 1.16 C6.01 1.41, 6.2 1.7, 6.37 2.02 C6.54 2.34, 6.7 2.7, 6.85 3.09 C6.99 3.47, 7.12 3.89, 7.23 4.32 C7.35 4.75, 7.44 5.22, 7.52 5.69 C7.6 6.16, 7.66 6.65, 7.7 7.14 C7.73 7.63, 7.74 8.39, 7.75 8.64 C7.76 8.89, 7.76 8.39, 7.75 8.64" stroke="#000000" stroke-width="1" fill="none"></path></g><g stroke-linecap="round" transform="translate(555.4398272878261 410.819498604797) rotate(360.747659213025 9.054067318953457 23.458265326379433)"><path d="M18.11 23.46 C18.11 24.82, 18.06 26.19, 17.97 27.53 C17.88 28.87, 17.74 30.21, 17.56 31.48 C17.38 32.76, 17.16 34.01, 16.9 35.19 C16.63 36.36, 16.33 37.5, 15.99 38.54 C15.65 39.58, 15.28 40.56, 14.87 41.43 C14.47 42.3, 14.03 43.09, 13.58 43.77 C13.13 44.45, 12.64 45.04, 12.15 45.5 C11.66 45.97, 11.14 46.32, 10.63 46.56 C10.11 46.8, 9.58 46.92, 9.05 46.92 C8.53 46.92, 8 46.8, 7.48 46.56 C6.97 46.32, 6.45 45.97, 5.96 45.5 C5.46 45.04, 4.98 44.45, 4.53 43.77 C4.07 43.09, 3.64 42.3, 3.23 41.43 C2.83 40.56, 2.46 39.58, 2.12 38.54 C1.78 37.5, 1.48 36.36, 1.21 35.19 C0.95 34.01, 0.73 32.76, 0.55 31.48 C0.37 30.21, 0.23 28.87, 0.14 27.53 C0.05 26.19, 0 24.82, 0 23.46 C0 22.1, 0.05 20.72, 0.14 19.38 C0.23 18.05, 0.37 16.71, 0.55 15.44 C0.73 14.16, 0.95 12.91, 1.21 11.73 C1.48 10.55, 1.78 9.42, 2.12 8.38 C2.46 7.34, 2.83 6.36, 3.23 5.49 C3.64 4.62, 4.07 3.82, 4.53 3.14 C4.98 2.46, 5.46 1.88, 5.96 1.41 C6.45 0.95, 6.97 0.59, 7.48 0.36 C8 0.12, 8.53 0, 9.05 0 C9.58 0, 10.11 0.12, 10.63 0.36 C11.14 0.59, 11.66 0.95, 12.15 1.41 C12.64 1.88, 13.13 2.46, 13.58 3.14 C14.03 3.82, 14.47 4.62, 14.87 5.49 C15.28 6.36, 15.65 7.34, 15.99 8.38 C16.33 9.42, 16.63 10.55, 16.9 11.73 C17.16 12.91, 17.38 14.16, 17.56 15.44 C17.74 16.71, 17.88 18.05, 17.97 19.38 C18.06 20.72, 18.09 22.78, 18.11 23.46 C18.13 24.14, 18.13 22.78, 18.11 23.46" stroke="none" stroke-width="0" fill="#000"></path><path d="M18.11 23.46 C18.11 24.82, 18.06 26.19, 17.97 27.53 C17.88 28.87, 17.74 30.21, 17.56 31.48 C17.38 32.76, 17.16 34.01, 16.9 35.19 C16.63 36.36, 16.33 37.5, 15.99 38.54 C15.65 39.58, 15.28 40.56, 14.87 41.43 C14.47 42.3, 14.03 43.09, 13.58 43.77 C13.13 44.45, 12.64 45.04, 12.15 45.5 C11.66 45.97, 11.14 46.32, 10.63 46.56 C10.11 46.8, 9.58 46.92, 9.05 46.92 C8.53 46.92, 8 46.8, 7.48 46.56 C6.97 46.32, 6.45 45.97, 5.96 45.5 C5.46 45.04, 4.98 44.45, 4.53 43.77 C4.07 43.09, 3.64 42.3, 3.23 41.43 C2.83 40.56, 2.46 39.58, 2.12 38.54 C1.78 37.5, 1.48 36.36, 1.21 35.19 C0.95 34.01, 0.73 32.76, 0.55 31.48 C0.37 30.21, 0.23 28.87, 0.14 27.53 C0.05 26.19, 0 24.82, 0 23.46 C0 22.1, 0.05 20.72, 0.14 19.38 C0.23 18.05, 0.37 16.71, 0.55 15.44 C0.73 14.16, 0.95 12.91, 1.21 11.73 C1.48 10.55, 1.78 9.42, 2.12 8.38 C2.46 7.34, 2.83 6.36, 3.23 5.49 C3.64 4.62, 4.07 3.82, 4.53 3.14 C4.98 2.46, 5.46 1.88, 5.96 1.41 C6.45 0.95, 6.97 0.59, 7.48 0.36 C8 0.12, 8.53 0, 9.05 0 C9.58 0, 10.11 0.12, 10.63 0.36 C11.14 0.59, 11.66 0.95, 12.15 1.41 C12.64 1.88, 13.13 2.46, 13.58 3.14 C14.03 3.82, 14.47 4.62, 14.87 5.49 C15.28 6.36, 15.65 7.34, 15.99 8.38 C16.33 9.42, 16.63 10.55, 16.9 11.73 C17.16 12.91, 17.38 14.16, 17.56 15.44 C17.74 16.71, 17.88 18.05, 17.97 19.38 C18.06 20.72, 18.09 22.78, 18.11 23.46 C18.13 24.14, 18.13 22.78, 18.11 23.46" stroke="#000000" stroke-width="1" fill="none"></path></g><g stroke-linecap="round" transform="translate(558.0328632957389 416.1351049745249) rotate(369.8539733921081 3.877220215532816 8.642518804455676)"><path d="M7.75 8.64 C7.75 9.14, 7.73 9.65, 7.7 10.14 C7.66 10.64, 7.6 11.13, 7.52 11.6 C7.44 12.07, 7.35 12.53, 7.23 12.96 C7.12 13.4, 6.99 13.81, 6.85 14.2 C6.7 14.58, 6.54 14.94, 6.37 15.26 C6.2 15.58, 6.01 15.88, 5.82 16.13 C5.62 16.38, 5.41 16.59, 5.2 16.76 C4.99 16.93, 4.77 17.07, 4.55 17.15 C4.33 17.24, 4.1 17.29, 3.88 17.29 C3.65 17.29, 3.42 17.24, 3.2 17.15 C2.98 17.07, 2.76 16.93, 2.55 16.76 C2.34 16.59, 2.13 16.38, 1.94 16.13 C1.74 15.88, 1.56 15.58, 1.38 15.26 C1.21 14.94, 1.05 14.58, 0.91 14.2 C0.76 13.81, 0.63 13.4, 0.52 12.96 C0.41 12.53, 0.31 12.07, 0.23 11.6 C0.16 11.13, 0.1 10.64, 0.06 10.14 C0.02 9.65, 0 9.14, 0 8.64 C0 8.14, 0.02 7.63, 0.06 7.14 C0.1 6.65, 0.16 6.16, 0.23 5.69 C0.31 5.22, 0.41 4.75, 0.52 4.32 C0.63 3.89, 0.76 3.47, 0.91 3.09 C1.05 2.7, 1.21 2.34, 1.38 2.02 C1.56 1.7, 1.74 1.41, 1.94 1.16 C2.13 0.91, 2.34 0.69, 2.55 0.52 C2.76 0.35, 2.98 0.22, 3.2 0.13 C3.42 0.04, 3.65 0, 3.88 0 C4.1 0, 4.33 0.04, 4.55 0.13 C4.77 0.22, 4.99 0.35, 5.2 0.52 C5.41 0.69, 5.62 0.91, 5.82 1.16 C6.01 1.41, 6.2 1.7, 6.37 2.02 C6.54 2.34, 6.7 2.7, 6.85 3.09 C6.99 3.47, 7.12 3.89, 7.23 4.32 C7.35 4.75, 7.44 5.22, 7.52 5.69 C7.6 6.16, 7.66 6.65, 7.7 7.14 C7.73 7.63, 7.74 8.39, 7.75 8.64 C7.76 8.89, 7.76 8.39, 7.75 8.64" stroke="none" stroke-width="0" fill="#fff"></path><path d="M7.75 8.64 C7.75 9.14, 7.73 9.65, 7.7 10.14 C7.66 10.64, 7.6 11.13, 7.52 11.6 C7.44 12.07, 7.35 12.53, 7.23 12.96 C7.12 13.4, 6.99 13.81, 6.85 14.2 C6.7 14.58, 6.54 14.94, 6.37 15.26 C6.2 15.58, 6.01 15.88, 5.82 16.13 C5.62 16.38, 5.41 16.59, 5.2 16.76 C4.99 16.93, 4.77 17.07, 4.55 17.15 C4.33 17.24, 4.1 17.29, 3.88 17.29 C3.65 17.29, 3.42 17.24, 3.2 17.15 C2.98 17.07, 2.76 16.93, 2.55 16.76 C2.34 16.59, 2.13 16.38, 1.94 16.13 C1.74 15.88, 1.56 15.58, 1.38 15.26 C1.21 14.94, 1.05 14.58, 0.91 14.2 C0.76 13.81, 0.63 13.4, 0.52 12.96 C0.41 12.53, 0.31 12.07, 0.23 11.6 C0.16 11.13, 0.1 10.64, 0.06 10.14 C0.02 9.65, 0 9.14, 0 8.64 C0 8.14, 0.02 7.63, 0.06 7.14 C0.1 6.65, 0.16 6.16, 0.23 5.69 C0.31 5.22, 0.41 4.75, 0.52 4.32 C0.63 3.89, 0.76 3.47, 0.91 3.09 C1.05 2.7, 1.21 2.34, 1.38 2.02 C1.56 1.7, 1.74 1.41, 1.94 1.16 C2.13 0.91, 2.34 0.69, 2.55 0.52 C2.76 0.35, 2.98 0.22, 3.2 0.13 C3.42 0.04, 3.65 0, 3.88 0 C4.1 0, 4.33 0.04, 4.55 0.13 C4.77 0.22, 4.99 0.35, 5.2 0.52 C5.41 0.69, 5.62 0.91, 5.82 1.16 C6.01 1.41, 6.2 1.7, 6.37 2.02 C6.54 2.34, 6.7 2.7, 6.85 3.09 C6.99 3.47, 7.12 3.89, 7.23 4.32 C7.35 4.75, 7.44 5.22, 7.52 5.69 C7.6 6.16, 7.66 6.65, 7.7 7.14 C7.73 7.63, 7.74 8.39, 7.75 8.64 C7.76 8.89, 7.76 8.39, 7.75 8.64" stroke="#000000" stroke-width="1" fill="none"></path></g><g stroke-linecap="round"><g transform="translate(541.1740384540954 528.6252898458961) rotate(343.13155176511515 6.543260373047815 9.052262281609046)"><path d="M0 0 C0 6.31, 0 12.61, 0 18.1 M0 0 C0 5.23, 0 10.46, 0 18.1 M0 18.1 C3.03 18.03, 6.06 17.96, 13.09 17.8 M0 18.1 C2.84 18.04, 5.67 17.97, 13.09 17.8 M13.09 17.8 C12.78 12, 12.47 6.19, 12.24 1.81 M13.09 17.8 C12.9 14.34, 12.72 10.88, 12.24 1.81" stroke="#000000" stroke-width="1" fill="none"></path></g></g><g stroke-linecap="round"><g transform="translate(531.1871212751375 542.4885778436801) rotate(339.67493259307446 18.533174610443893 7.42393817735001)"><path d="M14.07 3.84 C9.21 2.12, -8.79 -6.91, -15.08 -6.45 C-21.37 -5.99, -31.37 2.18, -23.65 6.58 C-15.94 10.98, 17.22 17.73, 31.22 19.96 C45.22 22.19, 55.74 21.27, 60.37 19.96 C65 18.64, 64.43 14.64, 59 12.07 C53.57 9.5, 32.99 5.78, 27.79 4.52 M14.07 3.84 C9.21 2.12, -8.79 -6.91, -15.08 -6.45 C-21.37 -5.99, -31.37 2.18, -23.65 6.58 C-15.94 10.98, 17.22 17.73, 31.22 19.96 C45.22 22.19, 55.74 21.27, 60.37 19.96 C65 18.64, 64.43 14.64, 59 12.07 C53.57 9.5, 32.99 5.78, 27.79 4.52" stroke="#000000" stroke-width="1" fill="none"></path></g></g><g stroke-linecap="round"><g transform="translate(525.49913990391 483.9140638215363) rotate(339.67493259307446 17.285037608911352 2.05774257248936)"><path d="M0 0 C5.76 0.69, 28.81 3.43, 34.57 4.12 M0 0 C5.76 0.69, 28.81 3.43, 34.57 4.12" stroke="#000000" stroke-width="1" fill="none"></path></g></g></svg>