<svg width="431" height="469" xmlns="http://www.w3.org/2000/svg"><g fill="none" fill-rule="evenodd"><path d="M171.49 37.882c-17.41 6.682-90.682 4.203-104.468 40.062-13.815 35.862-14.438 150.231 21.675 175.16 36.113 24.93 163.825 8.438 194.98-25.522 31.153-33.99 10.68-146.69-8.023-178.3-18.702-31.612-86.793-9.501-104.163-11.4m0 0c-17.411 6.682-90.683 4.203-104.469 40.062-13.815 35.862-14.438 150.231 21.675 175.16 36.113 24.93 163.825 8.438 194.98-25.522 31.153-33.99 10.68-146.69-8.023-178.3-18.702-31.612-86.793-9.501-104.163-11.4" stroke="#000" stroke-width="3"/><path d="M170.527 17.71c-20.418 7.843-106.335 4.915-122.518 46.968-16.18 42.083-16.922 176.185 25.426 205.44 42.345 29.226 192.107 9.898 228.657-29.937C338.64 200.317 314.6 68.158 292.673 31.09 270.747-5.98 190.893 19.93 170.527 17.71m0 0c-20.418 7.843-106.335 4.915-122.518 46.968-16.18 42.083-16.922 176.185 25.426 205.44 42.345 29.226 192.107 9.898 228.657-29.937C338.64 200.317 314.6 68.158 292.673 31.09 270.747-5.98 190.893 19.93 170.527 17.71" stroke="#000" stroke-width="3"/><path d="M102.35 266.519c.124.337.231.714.29 1.044.069.358.081.738.083 1.089.002.35-.024.712-.078 1.084a8.93 8.93 0 0 1-.26 1.025c-.132.336-.291.683-.46 1.002a8.93 8.93 0 0 1-.608.865 7.225 7.225 0 0 1-.772.766 6.04 6.04 0 0 1-.88.646 6.296 6.296 0 0 1-1.998.74 6.04 6.04 0 0 1-1.089.083 7.225 7.225 0 0 1-1.085-.078 8.93 8.93 0 0 1-1.024-.26 9.568 9.568 0 0 1-1.002-.461 8.93 8.93 0 0 1-.865-.608 14.951 14.951 0 0 1-.794-.761 5.986 5.986 0 0 1-.618-.891 6.296 6.296 0 0 1-.74-1.997 5.986 5.986 0 0 1-.111-1.079c.026-.361.052-.723.106-1.095a8.93 8.93 0 0 1 .26-1.024c.132-.337.291-.684.46-1.003.181-.29.39-.591.608-.864.247-.284.505-.539.762-.794.268-.227.574-.437.89-.618a6.296 6.296 0 0 1 1.997-.74c.36-.069.728-.11 1.08-.112.361.026.723.052 1.095.107a8.93 8.93 0 0 1 1.024.26c.336.131.683.29 1.002.46.29.18.592.39.865.608.283.247.539.504.766.772.227.268.465.564.646.88.17.29.358.795.45.954.062.169-.063-.169 0 0M118.642 270.39c.125.337.232.714.29 1.044.07.358.082.737.084 1.089.002.35-.024.712-.078 1.084a8.93 8.93 0 0 1-.26 1.025c-.132.336-.291.683-.461 1.002a8.93 8.93 0 0 1-.608.865 7.225 7.225 0 0 1-.772.766 6.04 6.04 0 0 1-.88.646 6.296 6.296 0 0 1-1.998.74 6.04 6.04 0 0 1-1.088.083 7.225 7.225 0 0 1-1.085-.078 8.93 8.93 0 0 1-1.024-.26 9.568 9.568 0 0 1-1.003-.461 8.93 8.93 0 0 1-.865-.608 14.951 14.951 0 0 1-.794-.761 5.986 5.986 0 0 1-.617-.891 6.296 6.296 0 0 1-.74-1.997 5.986 5.986 0 0 1-.112-1.079c.026-.361.052-.723.106-1.095a8.93 8.93 0 0 1 .26-1.024c.132-.337.292-.684.461-1.003.18-.29.389-.591.608-.864.247-.284.504-.54.761-.794.268-.228.575-.437.891-.618a6.296 6.296 0 0 1 1.997-.74c.36-.069.728-.11 1.08-.112.36.026.722.052 1.094.107a8.93 8.93 0 0 1 1.024.26c.337.131.684.29 1.003.46.29.18.592.39.865.608.283.247.538.504.765.772.228.268.465.564.647.88.17.289.358.795.449.954.062.169-.063-.169 0 0M136.762 270.282c.125.337.233.713.291 1.044.069.358.081.737.083 1.088.002.352-.024.713-.078 1.085a8.93 8.93 0 0 1-.26 1.024c-.131.337-.29.684-.46 1.003a8.93 8.93 0 0 1-.608.865 7.225 7.225 0 0 1-.772.765 6.04 6.04 0 0 1-.88.646 6.296 6.296 0 0 1-1.998.74 6.04 6.04 0 0 1-1.089.084 7.225 7.225 0 0 1-1.084-.078 8.93 8.93 0 0 1-1.025-.26 9.568 9.568 0 0 1-1.002-.461 8.93 8.93 0 0 1-.865-.608 14.951 14.951 0 0 1-.794-.761 5.986 5.986 0 0 1-.618-.891 6.296 6.296 0 0 1-.74-1.998 5.986 5.986 0 0 1-.111-1.078c.026-.362.052-.723.106-1.095a8.93 8.93 0 0 1 .26-1.024c.132-.337.291-.684.461-1.003.18-.29.389-.592.607-.865.247-.283.505-.538.762-.794.268-.227.574-.436.89-.617a6.296 6.296 0 0 1 1.997-.74c.36-.07.729-.11 1.08-.112.361.026.723.052 1.095.106a8.93 8.93 0 0 1 1.024.26c.337.132.684.292 1.002.461.291.18.592.389.865.608.284.247.539.504.766.772.227.268.465.564.646.88.171.289.359.795.45.954.062.168-.063-.17 0 0M266.94 251.78c.125.338.232.714.29 1.044.07.359.082.738.084 1.09.002.35-.024.712-.078 1.084a8.93 8.93 0 0 1-.26 1.024c-.132.337-.291.684-.461 1.002a8.93 8.93 0 0 1-.608.865 7.225 7.225 0 0 1-.772.766 6.04 6.04 0 0 1-.88.646 6.296 6.296 0 0 1-1.998.74 6.04 6.04 0 0 1-1.088.083 7.225 7.225 0 0 1-1.085-.078 8.93 8.93 0 0 1-1.024-.26 9.568 9.568 0 0 1-1.003-.46 8.93 8.93 0 0 1-.864-.608c-.284-.247-.54-.504-.794-.762a5.986 5.986 0 0 1-.618-.89 6.296 6.296 0 0 1-.74-1.998 5.986 5.986 0 0 1-.112-1.078c.026-.362.052-.724.107-1.096a8.93 8.93 0 0 1 .26-1.024c.131-.336.29-.683.46-1.002.18-.29.39-.592.608-.865.247-.283.504-.539.762-.794.267-.227.574-.437.89-.618a6.296 6.296 0 0 1 1.997-.74c.36-.068.728-.11 1.08-.111.36.026.722.052 1.094.106a8.93 8.93 0 0 1 1.025.26c.336.132.683.291 1.002.461.29.18.592.389.865.607.283.247.538.505.766.772.227.268.464.564.646.88.17.29.358.796.449.954.062.169-.063-.169 0 0M144.45 206.362c5.692 4.226 23.108 27.495 34.143 25.327 11.034-2.167 26.701-31.9 32.043-38.294m-66.187 12.967c5.693 4.226 23.11 27.495 34.144 25.327 11.034-2.167 26.701-31.9 32.043-38.294" stroke="#000" stroke-width="3"/><path d="M117.394 74.248c.99.013 1.977.266 2.931.699.984.463 1.935 1.165 2.854 2.047.918.882 1.804 1.974 2.627 3.275.853 1.301 1.644 2.781 2.403 4.441.728 1.66 1.394 3.499 2.029 5.457a71.206 71.206 0 0 1 1.597 6.322 80.45 80.45 0 0 1 1.169 7.006c.299 2.404.536 4.927.683 7.42.036.775.062 1.679.08 2.596l.014.688c.031 1.833.038 3.604.046 4.398-.033 2.55-.157 5.128-.34 7.646a115.383 115.383 0 0 1-.877 7.43 79.74 79.74 0 0 1-1.35 6.942 66.06 66.06 0 0 1-1.763 6.278c-.685 1.94-1.4 3.792-2.17 5.402-.802 1.64-1.631 3.129-2.518 4.377-.856 1.28-1.77 2.377-2.712 3.235-.941.858-1.91 1.505-2.906 1.942-.858.39-1.738.612-2.618.647l-.33.005c-.99-.013-2.007-.266-2.961-.729a10.64 10.64 0 0 1-2.824-2.017c-.919-.882-1.834-2.004-2.657-3.305-.854-1.271-1.644-2.781-2.372-4.441a48.906 48.906 0 0 1-2.03-5.457 65.916 65.916 0 0 1-1.627-6.322c-.451-2.226-.87-4.572-1.17-6.976a97.545 97.545 0 0 1-.652-7.449 108.825 108.825 0 0 1 .2-15.329c.183-2.487.485-5.004.847-7.4.36-2.395.842-4.758 1.35-6.972a71.117 71.117 0 0 1 1.793-6.277 51.319 51.319 0 0 1 2.17-5.402c.772-1.64 1.601-3.1 2.488-4.378a17.566 17.566 0 0 1 2.742-3.205c.911-.858 1.91-1.535 2.876-1.972.965-.408 1.988-.634 2.978-.622Zm-2.666 10.234a3.748 3.748 0 0 0-1.283.021c-.444.105-.9.27-1.34.528-.435.23-.892.576-1.328.988-.462.376-.884.881-1.312 1.416a15.582 15.582 0 0 0-1.23 1.826c-.39.663-.76 1.39-1.106 2.153-.345.762-.7 1.583-.973 2.45a26.12 26.12 0 0 0-.793 2.633c-.247.9-.436 1.812-.6 2.758a29.55 29.55 0 0 0-.365 2.799 26.12 26.12 0 0 0-.142 2.746c-.036.907.022 1.8.09 2.634.069.834.172 1.644.315 2.4.143.755.32 1.486.542 2.134.223.647.456 1.236.758 1.775.272.535.59.986.918 1.378.327.392.7.7 1.088.92.383.249.782.41 1.195.481l.209.029c.349.035.708.009 1.079-.079.44-.076.894-.24 1.335-.499a8.94 8.94 0 0 0 1.358-.982c.437-.411.884-.882 1.282-1.421.428-.535.842-1.164 1.231-1.827.39-.663.789-1.385 1.134-2.147.346-.762.672-1.589.974-2.45.267-.837.544-1.732.763-2.638.248-.901.441-1.842.6-2.758.047-.27.137-.841.218-1.455l.058-.464c.037-.31.069-.614.089-.88.1-.927.14-1.863.172-2.741.006-.913-.023-1.8-.091-2.635-.068-.833-.2-1.648-.344-2.404a15.582 15.582 0 0 0-.542-2.134 9.359 9.359 0 0 0-.728-1.77c-.302-.54-.614-1.021-.947-1.383-.328-.392-.7-.7-1.084-.95a3.748 3.748 0 0 0-1.2-.452ZM219.02 58.894c.99.013 1.976.265 2.93.698.985.463 1.936 1.165 2.854 2.047.919.882 1.805 1.974 2.628 3.275.853 1.301 1.644 2.782 2.402 4.442.729 1.66 1.395 3.498 2.03 5.457a71.206 71.206 0 0 1 1.597 6.32 80.45 80.45 0 0 1 1.168 7.007c.3 2.404.536 4.927.684 7.42.036.775.062 1.679.08 2.596l.013.688c.032 1.833.038 3.604.046 4.398-.033 2.55-.156 5.128-.34 7.646a115.383 115.383 0 0 1-.876 7.43 79.74 79.74 0 0 1-1.351 6.942 66.06 66.06 0 0 1-1.762 6.278c-.686 1.94-1.4 3.792-2.17 5.402-.802 1.64-1.632 3.129-2.518 4.377-.857 1.28-1.771 2.377-2.713 3.235-.94.858-1.91 1.505-2.905 1.943-.859.388-1.739.61-2.619.647l-.33.004c-.99-.013-2.007-.266-2.96-.729a10.64 10.64 0 0 1-2.825-2.017c-.918-.882-1.834-2.004-2.657-3.305-.853-1.27-1.644-2.781-2.372-4.44a48.907 48.907 0 0 1-2.029-5.458 65.917 65.917 0 0 1-1.628-6.322c-.45-2.226-.87-4.571-1.169-6.975a97.545 97.545 0 0 1-.653-7.45 108.825 108.825 0 0 1 .2-15.329c.183-2.487.486-5.003.847-7.399.361-2.395.842-4.76 1.351-6.973a71.117 71.117 0 0 1 1.792-6.277 51.319 51.319 0 0 1 2.171-5.402c.771-1.64 1.6-3.1 2.487-4.378a17.566 17.566 0 0 1 2.742-3.205c.912-.858 1.91-1.535 2.876-1.972.966-.408 1.989-.634 2.979-.621Zm-2.667 10.233a3.748 3.748 0 0 0-1.282.021c-.445.106-.9.27-1.34.529-.436.228-.892.575-1.329.987-.461.376-.884.881-1.312 1.416a15.582 15.582 0 0 0-1.23 1.826c-.39.664-.76 1.391-1.105 2.153-.346.762-.701 1.583-.974 2.45a26.12 26.12 0 0 0-.792 2.633c-.248.9-.437 1.812-.6 2.758a29.55 29.55 0 0 0-.365 2.799 26.12 26.12 0 0 0-.142 2.746c-.036.907.022 1.8.09 2.634.068.834.171 1.644.314 2.4.143.755.32 1.486.543 2.134.222.647.455 1.236.757 1.776.273.534.59.985.918 1.377.328.392.7.7 1.089.92.383.25.781.41 1.195.482l.208.028c.35.035.709.009 1.08-.079.439-.076.894-.24 1.335-.499a8.94 8.94 0 0 0 1.358-.982c.437-.411.884-.882 1.282-1.421.428-.535.841-1.164 1.23-1.827.39-.663.79-1.385 1.135-2.147.345-.762.672-1.589.973-2.45.268-.836.545-1.732.763-2.638.248-.901.442-1.842.601-2.758.047-.27.136-.841.217-1.455l.059-.464c.037-.31.068-.614.088-.88.1-.927.141-1.863.172-2.741.006-.912-.022-1.8-.09-2.634-.069-.834-.201-1.65-.344-2.405a15.582 15.582 0 0 0-.543-2.134 9.358 9.358 0 0 0-.727-1.77c-.303-.54-.615-1.02-.948-1.383-.328-.392-.7-.7-1.083-.95a3.748 3.748 0 0 0-1.2-.452Z" fill="#000" fill-rule="nonzero"/><path d="m170.16 284.776 9.88 32.585 23.377-7.683-10.216-28.314"/><path d="m170.16 284.776 9.88 32.585m-9.88-32.585 9.88 32.585m0 0c8.323-2.743 16.682-5.465 23.377-7.683m-23.376 7.683c6.76-2.206 13.512-4.442 23.376-7.683m0 0c-2.231-6.22-4.482-12.404-10.216-28.314m10.216 28.314c-3.034-8.454-6.096-16.899-10.216-28.314m0 0c-6.032.888-12.092 1.785-23.04 3.412m23.04-3.412c-5.25.777-10.472 1.545-23.04 3.412" stroke="#000" stroke-width="3"/><path d="M180.436 317.101c-9.706.14-47.337-4.028-58.147.903-10.782 4.922-23.085 25.86-6.594 28.58 16.492 2.721 79.359-7.032 105.518-12.243 26.148-5.239 44.121-13.72 51.425-19.049 7.294-5.356 3.665-12.042-7.577-13.029-11.271-.976-49.99 5.912-59.984 7.086m-24.641 7.752c-9.706.14-47.337-4.028-58.147.903-10.782 4.922-23.085 25.86-6.594 28.58 16.492 2.721 79.359-7.032 105.518-12.243 26.148-5.239 44.121-13.72 51.425-19.049 7.294-5.356 3.665-12.042-7.577-13.029-11.271-.976-49.99 5.912-59.984 7.086M145.768 207.908l63.65-15.323m-63.65 15.323 63.65-15.323" stroke="#000" stroke-width="3"/><g fill="#000" fill-rule="nonzero"><path d="M22.316 468.402c-7.066 0-12.542-2.452-16.426-7.357-3.885-4.904-5.827-11.944-5.827-21.12 0-9.386 1.95-16.655 5.853-21.805 3.902-5.15 9.404-7.726 16.506-7.726 8.894 0 13.816 3.727 14.765 11.18h1.055v-33.328h11.18v79.101l-10.02.528-.949-9.176h-1.266c-.351 3.199-1.863 5.616-4.535 7.25-2.672 1.636-6.117 2.453-10.336 2.453Zm-11.18-28.477c0 12.657 4.325 18.985 12.973 18.985 9.422 0 14.133-3.164 14.133-9.492v-13.5c0-10.688-4.746-16.032-14.238-16.032-4.113 0-7.286 1.74-9.519 5.221-2.232 3.48-3.348 8.42-3.348 14.818ZM89.922 468.402c-7.734 0-13.746-2.531-18.035-7.594-4.29-5.062-6.434-12.199-6.434-21.41 0-9.246 2.145-16.392 6.434-21.436 4.289-5.045 10.3-7.568 18.035-7.568 7.77 0 13.79 2.523 18.061 7.568 4.272 5.044 6.408 12.19 6.408 21.436 0 9.211-2.136 16.348-6.408 21.41-4.271 5.063-10.292 7.594-18.061 7.594Zm0-10.02c4.113 0 7.286-1.652 9.518-4.957 2.233-3.304 3.35-7.98 3.35-14.027 0-6.082-1.117-10.767-3.35-14.054-2.232-3.287-5.405-4.93-9.518-4.93s-7.286 1.643-9.519 4.93c-2.232 3.287-3.348 7.972-3.348 14.054 0 6.047 1.116 10.723 3.348 14.027 2.233 3.305 5.406 4.957 9.519 4.957ZM157.527 468.402c-9.175 0-16.268-2.505-21.278-7.515-5.01-5.01-7.515-12.208-7.515-21.594 0-9.141 2.453-16.243 7.357-21.305 4.904-5.063 11.909-7.594 21.014-7.594 5.45 0 10.117 1.01 14.001 3.032 3.885 2.022 6.654 4.878 8.306 8.57l-8.596 6.486c-1.582-2.566-3.603-4.553-6.064-5.959-2.461-1.406-5.15-2.11-8.068-2.11-5.168 0-9.185 1.591-12.05 4.773-2.865 3.182-4.298 7.708-4.298 13.58 0 6.362 1.6 11.223 4.799 14.58 3.199 3.358 7.752 5.036 13.658 5.036 2.812 0 5.599-.123 8.358-.369 2.76-.246 5.458-.58 8.095-1.002l1.266 9.809a68.56 68.56 0 0 1-9.44 1.266c-3.234.21-6.416.316-9.545.316ZM226.082 468.402c-8.473 0-14.599-1.758-18.378-5.274-3.78-3.515-5.669-9.14-5.669-16.875v-25.628h-14.027v-9.176h14.027v-16.875h11.18v16.875h25.418v9.176h-25.418v25.101c0 4.43 1.08 7.647 3.243 9.65 2.162 2.004 5.722 3.006 10.679 3.006 1.758 0 3.62-.096 5.59-.29 1.968-.193 4.218-.448 6.75-.764l1.265 9.808c-2.46.422-4.86.739-7.198.95-2.338.21-4.825.316-7.462.316ZM252.344 467.347v-9.176h12.445v-37.546h-10.336v-9.176h19.406l1.899 14.344h1.265c.633-10.266 5.766-15.399 15.399-15.399 5.765 0 9.95 1.652 12.55 4.957 2.602 3.305 3.903 8.649 3.903 16.031h-11.074c0-4.078-.607-7.013-1.82-8.806-1.212-1.793-3.172-2.69-5.88-2.69-4.746 0-8.288 2.03-10.625 6.091-2.338 4.06-3.507 9.835-3.507 17.323v14.871h13.71v9.176h-37.335ZM348.426 468.402c-9.528 0-16.884-2.505-22.07-7.515-5.185-5.01-7.778-12.208-7.778-21.594 0-9.141 2.197-16.243 6.592-21.305 4.394-5.063 10.6-7.594 18.615-7.594 7.559 0 13.403 2.285 17.534 6.856 4.131 4.57 6.197 11.214 6.197 19.933 0 2.567-.106 4.957-.317 7.172h-37.758c.985 4.676 3.2 8.218 6.645 10.626 3.445 2.408 7.98 3.612 13.605 3.612 2.32 0 4.606-.131 6.856-.395a89.197 89.197 0 0 0 6.855-1.081l1.371 9.808c-3.304.633-6.328 1.037-9.07 1.213-2.742.176-5.168.264-7.277.264Zm-4.535-48.2c-4.325 0-7.77 1.354-10.336 4.061-2.567 2.707-4.078 6.557-4.535 11.55h28.37c0-5.028-1.195-8.887-3.585-11.576-2.39-2.69-5.696-4.034-9.914-4.034ZM411.707 468.402c-9.527 0-16.884-2.505-22.07-7.515-5.185-5.01-7.778-12.208-7.778-21.594 0-9.141 2.198-16.243 6.592-21.305 4.395-5.063 10.6-7.594 18.615-7.594 7.559 0 13.404 2.285 17.535 6.856 4.13 4.57 6.196 11.214 6.196 19.933 0 2.567-.106 4.957-.317 7.172h-37.757c.984 4.676 3.199 8.218 6.644 10.626 3.445 2.408 7.98 3.612 13.606 3.612 2.32 0 4.605-.131 6.855-.395a89.197 89.197 0 0 0 6.856-1.081l1.37 9.808c-3.304.633-6.327 1.037-9.07 1.213-2.742.176-5.168.264-7.277.264Zm-4.535-48.2c-4.324 0-7.77 1.354-10.336 4.061-2.566 2.707-4.078 6.557-4.535 11.55h28.37c0-5.028-1.194-8.887-3.585-11.576-2.39-2.69-5.695-4.034-9.914-4.034Z"/></g></g></svg>